<svg xmlns="http://www.w3.org/2000/svg" xmlns:xlink="http://www.w3.org/1999/xlink" width="1080" zoomAndPan="magnify" viewBox="0 0 810 809.999993" height="1080" preserveAspectRatio="xMidYMid meet" version="1.0"><defs><g/><clipPath id="378278ff03"><path d="M 334 22.25 L 475.75 22.25 L 475.75 125 L 334 125 Z M 334 22.25 " clip-rule="nonzero"/></clipPath></defs><g clip-path="url(#378278ff03)"><path fill="#eeeeee" d="M 475.707031 109.191406 C 475.707031 117.921875 468.660156 125 459.96875 125 L 349.78125 125 C 341.089844 125 334.042969 117.921875 334.042969 109.191406 L 334.042969 38.058594 C 334.042969 29.328125 341.089844 22.25 349.78125 22.25 L 459.96875 22.25 C 468.660156 22.25 475.707031 29.328125 475.707031 38.058594 Z M 475.707031 109.191406 " fill-opacity="1" fill-rule="nonzero"/></g><path fill="#c60c30" d="M 418.414062 54.203125 C 407.734375 46.695312 393.015625 49.300781 385.535156 60.027344 C 381.796875 65.386719 383.089844 72.78125 388.433594 76.542969 C 393.773438 80.292969 401.136719 78.984375 404.875 73.625 C 408.613281 68.265625 415.980469 66.957031 421.316406 70.71875 C 426.660156 74.472656 427.957031 81.867188 424.214844 87.226562 C 431.695312 76.503906 429.101562 61.71875 418.414062 54.203125 Z M 418.414062 54.203125 " fill-opacity="1" fill-rule="nonzero"/><path fill="#003478" d="M 421.316406 70.71875 C 415.980469 66.957031 408.613281 68.265625 404.875 73.625 C 401.136719 78.984375 393.773438 80.292969 388.433594 76.539062 C 383.089844 72.78125 381.796875 65.386719 385.535156 60.023438 C 378.050781 70.757812 380.648438 85.535156 391.328125 93.046875 C 402.015625 100.558594 416.730469 97.953125 424.210938 87.21875 C 427.953125 81.867188 426.65625 74.472656 421.316406 70.71875 Z M 421.316406 70.71875 " fill-opacity="1" fill-rule="nonzero"/><path fill="#292f33" d="M 429.800781 103.550781 L 437.386719 94.46875 L 440.402344 97.007812 L 432.816406 106.089844 Z M 439.914062 91.445312 L 447.5 82.367188 L 450.515625 84.910156 L 442.929688 93.984375 Z M 435.828125 108.640625 L 443.414062 99.5625 L 446.429688 102.101562 L 438.84375 111.179688 Z M 445.949219 96.523438 L 453.546875 87.445312 L 456.558594 89.992188 L 448.964844 99.0625 Z M 441.855469 113.722656 L 449.449219 104.644531 L 452.457031 107.183594 L 444.867188 116.261719 Z M 451.972656 101.609375 L 459.554688 92.519531 L 462.574219 95.0625 L 454.988281 104.152344 Z M 451.988281 45.640625 L 455 43.101562 L 462.597656 52.1875 L 459.578125 54.726562 Z M 441.867188 33.527344 L 444.878906 30.984375 L 452.464844 40.070312 L 449.449219 42.605469 Z M 435.832031 38.617188 L 438.847656 36.074219 L 456.554688 57.265625 L 453.542969 59.804688 Z M 429.804688 43.691406 L 432.824219 41.148438 L 440.40625 50.230469 L 437.390625 52.765625 Z M 439.917969 55.800781 L 442.933594 53.261719 L 450.527344 62.339844 L 447.515625 64.878906 Z M 359.226562 84.90625 L 362.242188 82.363281 L 379.945312 103.558594 L 376.925781 106.097656 Z M 353.207031 89.988281 L 356.214844 87.449219 L 363.808594 96.53125 L 360.789062 99.070312 Z M 363.308594 102.101562 L 366.320312 99.5625 L 373.917969 108.640625 L 370.902344 111.179688 Z M 347.167969 95.066406 L 350.183594 92.523438 L 367.890625 113.714844 L 364.875 116.253906 Z M 347.164062 52.179688 L 364.867188 30.988281 L 367.882812 33.527344 L 350.175781 54.71875 Z M 353.195312 57.265625 L 370.902344 36.070312 L 373.917969 38.613281 L 356.207031 59.800781 Z M 359.226562 62.34375 L 376.933594 41.148438 L 379.949219 43.691406 L 362.242188 64.882812 Z M 359.226562 62.34375 " fill-opacity="1" fill-rule="nonzero"/><g fill="#000000" fill-opacity="1"><g transform="translate(352.564744, 180.297273)"><g><path d="M 24.359375 -19.59375 L 24.359375 -31.40625 L 30.546875 -31.40625 L 30.546875 0 L 24.359375 0 L 24.359375 -14.3125 L 10.296875 -14.3125 L 10.296875 0 L 4.078125 0 L 4.078125 -31.40625 L 10.296875 -31.40625 L 10.296875 -19.59375 Z M 24.359375 -19.59375 "/></g></g></g><g fill="#000000" fill-opacity="1"><g transform="translate(387.212886, 180.297273)"><g><path d="M 9.234375 0.453125 C 7.722656 0.453125 6.40625 0.175781 5.28125 -0.375 C 4.164062 -0.9375 3.304688 -1.757812 2.703125 -2.84375 C 2.109375 -3.925781 1.8125 -5.226562 1.8125 -6.75 C 1.8125 -8.15625 2.109375 -9.332031 2.703125 -10.28125 C 3.304688 -11.226562 4.238281 -12.003906 5.5 -12.609375 C 6.757812 -13.222656 8.40625 -13.695312 10.4375 -14.03125 C 11.851562 -14.257812 12.929688 -14.507812 13.671875 -14.78125 C 14.410156 -15.050781 14.910156 -15.359375 15.171875 -15.703125 C 15.429688 -16.046875 15.5625 -16.484375 15.5625 -17.015625 C 15.5625 -17.773438 15.296875 -18.351562 14.765625 -18.75 C 14.234375 -19.15625 13.351562 -19.359375 12.125 -19.359375 C 10.800781 -19.359375 9.546875 -19.0625 8.359375 -18.46875 C 7.171875 -17.882812 6.140625 -17.113281 5.265625 -16.15625 L 4.828125 -16.15625 L 2.34375 -19.921875 C 3.539062 -21.253906 5.003906 -22.289062 6.734375 -23.03125 C 8.472656 -23.78125 10.367188 -24.15625 12.421875 -24.15625 C 15.554688 -24.15625 17.820312 -23.488281 19.21875 -22.15625 C 20.625 -20.820312 21.328125 -18.929688 21.328125 -16.484375 L 21.328125 -6.1875 C 21.328125 -5.125 21.796875 -4.59375 22.734375 -4.59375 C 23.085938 -4.59375 23.4375 -4.660156 23.78125 -4.796875 L 24.078125 -4.703125 L 24.515625 -0.5625 C 24.179688 -0.34375 23.722656 -0.164062 23.140625 -0.03125 C 22.554688 0.101562 21.910156 0.171875 21.203125 0.171875 C 19.785156 0.171875 18.675781 -0.0976562 17.875 -0.640625 C 17.082031 -1.191406 16.515625 -2.046875 16.171875 -3.203125 L 15.734375 -3.25 C 14.566406 -0.78125 12.398438 0.453125 9.234375 0.453125 Z M 11.125 -4 C 12.5 -4 13.597656 -4.457031 14.421875 -5.375 C 15.242188 -6.300781 15.65625 -7.585938 15.65625 -9.234375 L 15.65625 -11.640625 L 15.25 -11.734375 C 14.894531 -11.441406 14.425781 -11.195312 13.84375 -11 C 13.269531 -10.8125 12.4375 -10.625 11.34375 -10.4375 C 10.050781 -10.226562 9.125 -9.859375 8.5625 -9.328125 C 8 -8.804688 7.71875 -8.066406 7.71875 -7.109375 C 7.71875 -6.097656 8.015625 -5.328125 8.609375 -4.796875 C 9.210938 -4.265625 10.050781 -4 11.125 -4 Z M 11.125 -4 "/></g></g></g><g fill="#000000" fill-opacity="1"><g transform="translate(412.194776, 180.297273)"><g><path d="M 3.421875 0 L 3.421875 -23.703125 L 9.125 -23.703125 L 9.125 -20.21875 L 9.578125 -20.109375 C 11.054688 -22.804688 13.453125 -24.15625 16.765625 -24.15625 C 19.492188 -24.15625 21.5 -23.410156 22.78125 -21.921875 C 24.0625 -20.429688 24.703125 -18.257812 24.703125 -15.40625 L 24.703125 0 L 18.75 0 L 18.75 -14.671875 C 18.75 -16.242188 18.429688 -17.378906 17.796875 -18.078125 C 17.171875 -18.773438 16.164062 -19.125 14.78125 -19.125 C 13.070312 -19.125 11.742188 -18.570312 10.796875 -17.46875 C 9.847656 -16.363281 9.375 -14.628906 9.375 -12.265625 L 9.375 0 Z M 3.421875 0 "/></g></g></g><g fill="#000000" fill-opacity="1"><g transform="translate(439.947659, 180.297273)"><g><path d="M 9.234375 0.453125 C 7.722656 0.453125 6.40625 0.175781 5.28125 -0.375 C 4.164062 -0.9375 3.304688 -1.757812 2.703125 -2.84375 C 2.109375 -3.925781 1.8125 -5.226562 1.8125 -6.75 C 1.8125 -8.15625 2.109375 -9.332031 2.703125 -10.28125 C 3.304688 -11.226562 4.238281 -12.003906 5.5 -12.609375 C 6.757812 -13.222656 8.40625 -13.695312 10.4375 -14.03125 C 11.851562 -14.257812 12.929688 -14.507812 13.671875 -14.78125 C 14.410156 -15.050781 14.910156 -15.359375 15.171875 -15.703125 C 15.429688 -16.046875 15.5625 -16.484375 15.5625 -17.015625 C 15.5625 -17.773438 15.296875 -18.351562 14.765625 -18.75 C 14.234375 -19.15625 13.351562 -19.359375 12.125 -19.359375 C 10.800781 -19.359375 9.546875 -19.0625 8.359375 -18.46875 C 7.171875 -17.882812 6.140625 -17.113281 5.265625 -16.15625 L 4.828125 -16.15625 L 2.34375 -19.921875 C 3.539062 -21.253906 5.003906 -22.289062 6.734375 -23.03125 C 8.472656 -23.78125 10.367188 -24.15625 12.421875 -24.15625 C 15.554688 -24.15625 17.820312 -23.488281 19.21875 -22.15625 C 20.625 -20.820312 21.328125 -18.929688 21.328125 -16.484375 L 21.328125 -6.1875 C 21.328125 -5.125 21.796875 -4.59375 22.734375 -4.59375 C 23.085938 -4.59375 23.4375 -4.660156 23.78125 -4.796875 L 24.078125 -4.703125 L 24.515625 -0.5625 C 24.179688 -0.34375 23.722656 -0.164062 23.140625 -0.03125 C 22.554688 0.101562 21.910156 0.171875 21.203125 0.171875 C 19.785156 0.171875 18.675781 -0.0976562 17.875 -0.640625 C 17.082031 -1.191406 16.515625 -2.046875 16.171875 -3.203125 L 15.734375 -3.25 C 14.566406 -0.78125 12.398438 0.453125 9.234375 0.453125 Z M 11.125 -4 C 12.5 -4 13.597656 -4.457031 14.421875 -5.375 C 15.242188 -6.300781 15.65625 -7.585938 15.65625 -9.234375 L 15.65625 -11.640625 L 15.25 -11.734375 C 14.894531 -11.441406 14.425781 -11.195312 13.84375 -11 C 13.269531 -10.8125 12.4375 -10.625 11.34375 -10.4375 C 10.050781 -10.226562 9.125 -9.859375 8.5625 -9.328125 C 8 -8.804688 7.71875 -8.066406 7.71875 -7.109375 C 7.71875 -6.097656 8.015625 -5.328125 8.609375 -4.796875 C 9.210938 -4.265625 10.050781 -4 11.125 -4 Z M 11.125 -4 "/></g></g></g><g fill="#000000" fill-opacity="1"><g transform="translate(357.615521, 248.547269)"><g><path d="M 15.390625 -31.40625 C 20.484375 -31.40625 24.375 -30.085938 27.0625 -27.453125 C 29.75 -24.816406 31.09375 -20.898438 31.09375 -15.703125 C 31.09375 -10.515625 29.75 -6.597656 27.0625 -3.953125 C 24.375 -1.316406 20.484375 0 15.390625 0 L 4.078125 0 L 4.078125 -31.40625 Z M 15.015625 -5.21875 C 18.253906 -5.21875 20.675781 -6.046875 22.28125 -7.703125 C 23.882812 -9.359375 24.6875 -12.023438 24.6875 -15.703125 C 24.6875 -19.390625 23.882812 -22.054688 22.28125 -23.703125 C 20.675781 -25.359375 18.253906 -26.1875 15.015625 -26.1875 L 10.296875 -26.1875 L 10.296875 -5.21875 Z M 15.015625 -5.21875 "/></g></g></g><g fill="#000000" fill-opacity="1"><g transform="translate(391.189635, 248.547269)"><g><path d="M 13.765625 0.453125 C 11.453125 0.453125 9.414062 -0.0195312 7.65625 -0.96875 C 5.90625 -1.925781 4.546875 -3.320312 3.578125 -5.15625 C 2.609375 -7 2.125 -9.226562 2.125 -11.84375 C 2.125 -14.445312 2.609375 -16.671875 3.578125 -18.515625 C 4.546875 -20.367188 5.90625 -21.769531 7.65625 -22.71875 C 9.414062 -23.675781 11.453125 -24.15625 13.765625 -24.15625 C 16.085938 -24.15625 18.125 -23.675781 19.875 -22.71875 C 21.632812 -21.769531 23 -20.367188 23.96875 -18.515625 C 24.945312 -16.671875 25.4375 -14.445312 25.4375 -11.84375 C 25.4375 -9.226562 24.945312 -7 23.96875 -5.15625 C 23 -3.320312 21.632812 -1.925781 19.875 -0.96875 C 18.125 -0.0195312 16.085938 0.453125 13.765625 0.453125 Z M 13.765625 -4.59375 C 17.453125 -4.59375 19.296875 -7.007812 19.296875 -11.84375 C 19.296875 -14.34375 18.820312 -16.175781 17.875 -17.34375 C 16.925781 -18.507812 15.554688 -19.09375 13.765625 -19.09375 C 10.085938 -19.09375 8.25 -16.675781 8.25 -11.84375 C 8.25 -7.007812 10.085938 -4.59375 13.765625 -4.59375 Z M 13.765625 -4.59375 "/></g></g></g><g fill="#000000" fill-opacity="1"><g transform="translate(418.727712, 248.547269)"><g><path d="M 13.765625 0.453125 C 11.453125 0.453125 9.414062 -0.0195312 7.65625 -0.96875 C 5.90625 -1.925781 4.546875 -3.320312 3.578125 -5.15625 C 2.609375 -7 2.125 -9.226562 2.125 -11.84375 C 2.125 -14.445312 2.609375 -16.671875 3.578125 -18.515625 C 4.546875 -20.367188 5.90625 -21.769531 7.65625 -22.71875 C 9.414062 -23.675781 11.453125 -24.15625 13.765625 -24.15625 C 16.085938 -24.15625 18.125 -23.675781 19.875 -22.71875 C 21.632812 -21.769531 23 -20.367188 23.96875 -18.515625 C 24.945312 -16.671875 25.4375 -14.445312 25.4375 -11.84375 C 25.4375 -9.226562 24.945312 -7 23.96875 -5.15625 C 23 -3.320312 21.632812 -1.925781 19.875 -0.96875 C 18.125 -0.0195312 16.085938 0.453125 13.765625 0.453125 Z M 13.765625 -4.59375 C 17.453125 -4.59375 19.296875 -7.007812 19.296875 -11.84375 C 19.296875 -14.34375 18.820312 -16.175781 17.875 -17.34375 C 16.925781 -18.507812 15.554688 -19.09375 13.765625 -19.09375 C 10.085938 -19.09375 8.25 -16.675781 8.25 -11.84375 C 8.25 -7.007812 10.085938 -4.59375 13.765625 -4.59375 Z M 13.765625 -4.59375 "/></g></g></g><g fill="#000000" fill-opacity="1"><g transform="translate(446.26579, 248.547269)"><g><path d="M 9.84375 0.453125 C 7.707031 0.453125 6.078125 -0.125 4.953125 -1.28125 C 3.828125 -2.4375 3.265625 -4.1875 3.265625 -6.53125 L 3.265625 -33.21875 L 9.21875 -33.21875 L 9.21875 -6.765625 C 9.21875 -5.316406 9.816406 -4.59375 11.015625 -4.59375 C 11.359375 -4.59375 11.726562 -4.648438 12.125 -4.765625 L 12.421875 -4.6875 L 12.953125 -0.109375 C 12.628906 0.0664062 12.191406 0.203125 11.640625 0.296875 C 11.097656 0.398438 10.5 0.453125 9.84375 0.453125 Z M 9.84375 0.453125 "/></g></g></g><g fill="#000000" fill-opacity="1"><g transform="translate(373.17802, 316.797266)"><g><path d="M 13.921875 0.453125 C 11.742188 0.453125 9.804688 0.1875 8.109375 -0.34375 C 6.410156 -0.882812 4.992188 -1.59375 3.859375 -2.46875 C 2.734375 -3.34375 1.867188 -4.300781 1.265625 -5.34375 L 4.6875 -9.515625 L 5.21875 -9.515625 C 6.164062 -8.109375 7.363281 -6.988281 8.8125 -6.15625 C 10.269531 -5.332031 11.972656 -4.921875 13.921875 -4.921875 C 15.585938 -4.921875 16.84375 -5.269531 17.6875 -5.96875 C 18.53125 -6.675781 18.953125 -7.644531 18.953125 -8.875 C 18.953125 -9.613281 18.816406 -10.234375 18.546875 -10.734375 C 18.273438 -11.242188 17.820312 -11.675781 17.1875 -12.03125 C 16.5625 -12.382812 15.707031 -12.691406 14.625 -12.953125 L 10.59375 -13.875 C 7.769531 -14.519531 5.664062 -15.59375 4.28125 -17.09375 C 2.90625 -18.59375 2.21875 -20.535156 2.21875 -22.921875 C 2.21875 -24.703125 2.660156 -26.265625 3.546875 -27.609375 C 4.429688 -28.953125 5.722656 -29.992188 7.421875 -30.734375 C 9.117188 -31.484375 11.148438 -31.859375 13.515625 -31.859375 C 15.929688 -31.859375 18.003906 -31.539062 19.734375 -30.90625 C 21.460938 -30.269531 22.921875 -29.289062 24.109375 -27.96875 L 21.03125 -23.765625 L 20.5 -23.765625 C 19.613281 -24.691406 18.597656 -25.390625 17.453125 -25.859375 C 16.304688 -26.328125 14.992188 -26.5625 13.515625 -26.5625 C 11.804688 -26.5625 10.507812 -26.257812 9.625 -25.65625 C 8.738281 -25.050781 8.296875 -24.21875 8.296875 -23.15625 C 8.296875 -22.164062 8.601562 -21.378906 9.21875 -20.796875 C 9.84375 -20.210938 10.925781 -19.753906 12.46875 -19.421875 L 16.59375 -18.5625 C 19.632812 -17.914062 21.84375 -16.820312 23.21875 -15.28125 C 24.59375 -13.75 25.28125 -11.742188 25.28125 -9.265625 C 25.28125 -7.296875 24.859375 -5.582031 24.015625 -4.125 C 23.171875 -2.675781 21.894531 -1.550781 20.1875 -0.75 C 18.488281 0.0507812 16.398438 0.453125 13.921875 0.453125 Z M 13.921875 0.453125 "/></g></g></g><g fill="#000000" fill-opacity="1"><g transform="translate(400.157602, 316.797266)"><g><path d="M 23.421875 -10.5 L 8.1875 -10.5 C 8.351562 -8.4375 8.9375 -6.9375 9.9375 -6 C 10.945312 -5.0625 12.316406 -4.59375 14.046875 -4.59375 C 15.410156 -4.59375 16.515625 -4.847656 17.359375 -5.359375 C 18.203125 -5.867188 18.882812 -6.640625 19.40625 -7.671875 L 19.859375 -7.671875 L 23.8125 -5.140625 C 23.03125 -3.472656 21.859375 -2.125 20.296875 -1.09375 C 18.742188 -0.0625 16.660156 0.453125 14.046875 0.453125 C 11.597656 0.453125 9.484375 -0.0078125 7.703125 -0.9375 C 5.921875 -1.875 4.546875 -3.257812 3.578125 -5.09375 C 2.609375 -6.9375 2.125 -9.1875 2.125 -11.84375 C 2.125 -14.53125 2.628906 -16.796875 3.640625 -18.640625 C 4.660156 -20.492188 6.035156 -21.875 7.765625 -22.78125 C 9.503906 -23.695312 11.457031 -24.15625 13.625 -24.15625 C 16.976562 -24.15625 19.546875 -23.265625 21.328125 -21.484375 C 23.109375 -19.710938 24 -17.109375 24 -13.671875 C 24 -12.421875 23.957031 -11.453125 23.875 -10.765625 Z M 18.3125 -14.359375 C 18.25 -16.160156 17.828125 -17.472656 17.046875 -18.296875 C 16.265625 -19.117188 15.125 -19.53125 13.625 -19.53125 C 10.613281 -19.53125 8.84375 -17.804688 8.3125 -14.359375 Z M 18.3125 -14.359375 "/></g></g></g><g fill="#000000" fill-opacity="1"><g transform="translate(425.912793, 316.797266)"><g><path d="M 16.34375 -5.65625 L 17.890625 -1.25 C 17.253906 -0.71875 16.445312 -0.300781 15.46875 0 C 14.5 0.300781 13.394531 0.453125 12.15625 0.453125 C 9.59375 0.453125 7.644531 -0.242188 6.3125 -1.640625 C 4.976562 -3.035156 4.3125 -5.066406 4.3125 -7.734375 L 4.3125 -19 L 0.703125 -19 L 0.703125 -23.71875 L 4.3125 -23.71875 L 4.3125 -28.34375 L 10.265625 -29.3125 L 10.265625 -23.71875 L 17 -23.71875 L 17 -19 L 10.265625 -19 L 10.265625 -8.171875 C 10.265625 -6.992188 10.507812 -6.132812 11 -5.59375 C 11.488281 -5.0625 12.195312 -4.796875 13.125 -4.796875 C 14.1875 -4.796875 15.113281 -5.082031 15.90625 -5.65625 Z M 16.34375 -5.65625 "/></g></g></g><g fill="#000000" fill-opacity="1"><g transform="translate(369.451458, 385.047262)"><g><path d="M 10.09375 0 L 4.078125 0 L 4.078125 -31.40625 L 11.1875 -31.40625 L 23.8125 -11.171875 L 24.359375 -11.265625 L 24.359375 -31.40625 L 30.34375 -31.40625 L 30.34375 0 L 23.984375 0 L 10.640625 -21.609375 L 10.09375 -21.53125 Z M 10.09375 0 "/></g></g></g><g fill="#000000" fill-opacity="1"><g transform="translate(403.884795, 385.047262)"><g><path d="M 23.421875 -10.5 L 8.1875 -10.5 C 8.351562 -8.4375 8.9375 -6.9375 9.9375 -6 C 10.945312 -5.0625 12.316406 -4.59375 14.046875 -4.59375 C 15.410156 -4.59375 16.515625 -4.847656 17.359375 -5.359375 C 18.203125 -5.867188 18.882812 -6.640625 19.40625 -7.671875 L 19.859375 -7.671875 L 23.8125 -5.140625 C 23.03125 -3.472656 21.859375 -2.125 20.296875 -1.09375 C 18.742188 -0.0625 16.660156 0.453125 14.046875 0.453125 C 11.597656 0.453125 9.484375 -0.0078125 7.703125 -0.9375 C 5.921875 -1.875 4.546875 -3.257812 3.578125 -5.09375 C 2.609375 -6.9375 2.125 -9.1875 2.125 -11.84375 C 2.125 -14.53125 2.628906 -16.796875 3.640625 -18.640625 C 4.660156 -20.492188 6.035156 -21.875 7.765625 -22.78125 C 9.503906 -23.695312 11.457031 -24.15625 13.625 -24.15625 C 16.976562 -24.15625 19.546875 -23.265625 21.328125 -21.484375 C 23.109375 -19.710938 24 -17.109375 24 -13.671875 C 24 -12.421875 23.957031 -11.453125 23.875 -10.765625 Z M 18.3125 -14.359375 C 18.25 -16.160156 17.828125 -17.472656 17.046875 -18.296875 C 16.265625 -19.117188 15.125 -19.53125 13.625 -19.53125 C 10.613281 -19.53125 8.84375 -17.804688 8.3125 -14.359375 Z M 18.3125 -14.359375 "/></g></g></g><g fill="#000000" fill-opacity="1"><g transform="translate(429.639985, 385.047262)"><g><path d="M 16.34375 -5.65625 L 17.890625 -1.25 C 17.253906 -0.71875 16.445312 -0.300781 15.46875 0 C 14.5 0.300781 13.394531 0.453125 12.15625 0.453125 C 9.59375 0.453125 7.644531 -0.242188 6.3125 -1.640625 C 4.976562 -3.035156 4.3125 -5.066406 4.3125 -7.734375 L 4.3125 -19 L 0.703125 -19 L 0.703125 -23.71875 L 4.3125 -23.71875 L 4.3125 -28.34375 L 10.265625 -29.3125 L 10.265625 -23.71875 L 17 -23.71875 L 17 -19 L 10.265625 -19 L 10.265625 -8.171875 C 10.265625 -6.992188 10.507812 -6.132812 11 -5.59375 C 11.488281 -5.0625 12.195312 -4.796875 13.125 -4.796875 C 14.1875 -4.796875 15.113281 -5.082031 15.90625 -5.65625 Z M 16.34375 -5.65625 "/></g></g></g><g fill="#000000" fill-opacity="1"><g transform="translate(337.166307, 453.297259)"><g><path d="M 15.390625 -31.40625 C 20.484375 -31.40625 24.375 -30.085938 27.0625 -27.453125 C 29.75 -24.816406 31.09375 -20.898438 31.09375 -15.703125 C 31.09375 -10.515625 29.75 -6.597656 27.0625 -3.953125 C 24.375 -1.316406 20.484375 0 15.390625 0 L 4.078125 0 L 4.078125 -31.40625 Z M 15.015625 -5.21875 C 18.253906 -5.21875 20.675781 -6.046875 22.28125 -7.703125 C 23.882812 -9.359375 24.6875 -12.023438 24.6875 -15.703125 C 24.6875 -19.390625 23.882812 -22.054688 22.28125 -23.703125 C 20.675781 -25.359375 18.253906 -26.1875 15.015625 -26.1875 L 10.296875 -26.1875 L 10.296875 -5.21875 Z M 15.015625 -5.21875 "/></g></g></g><g fill="#000000" fill-opacity="1"><g transform="translate(370.740421, 453.297259)"><g><path d="M 9.234375 0.453125 C 7.722656 0.453125 6.40625 0.175781 5.28125 -0.375 C 4.164062 -0.9375 3.304688 -1.757812 2.703125 -2.84375 C 2.109375 -3.925781 1.8125 -5.226562 1.8125 -6.75 C 1.8125 -8.15625 2.109375 -9.332031 2.703125 -10.28125 C 3.304688 -11.226562 4.238281 -12.003906 5.5 -12.609375 C 6.757812 -13.222656 8.40625 -13.695312 10.4375 -14.03125 C 11.851562 -14.257812 12.929688 -14.507812 13.671875 -14.78125 C 14.410156 -15.050781 14.910156 -15.359375 15.171875 -15.703125 C 15.429688 -16.046875 15.5625 -16.484375 15.5625 -17.015625 C 15.5625 -17.773438 15.296875 -18.351562 14.765625 -18.75 C 14.234375 -19.15625 13.351562 -19.359375 12.125 -19.359375 C 10.800781 -19.359375 9.546875 -19.0625 8.359375 -18.46875 C 7.171875 -17.882812 6.140625 -17.113281 5.265625 -16.15625 L 4.828125 -16.15625 L 2.34375 -19.921875 C 3.539062 -21.253906 5.003906 -22.289062 6.734375 -23.03125 C 8.472656 -23.78125 10.367188 -24.15625 12.421875 -24.15625 C 15.554688 -24.15625 17.820312 -23.488281 19.21875 -22.15625 C 20.625 -20.820312 21.328125 -18.929688 21.328125 -16.484375 L 21.328125 -6.1875 C 21.328125 -5.125 21.796875 -4.59375 22.734375 -4.59375 C 23.085938 -4.59375 23.4375 -4.660156 23.78125 -4.796875 L 24.078125 -4.703125 L 24.515625 -0.5625 C 24.179688 -0.34375 23.722656 -0.164062 23.140625 -0.03125 C 22.554688 0.101562 21.910156 0.171875 21.203125 0.171875 C 19.785156 0.171875 18.675781 -0.0976562 17.875 -0.640625 C 17.082031 -1.191406 16.515625 -2.046875 16.171875 -3.203125 L 15.734375 -3.25 C 14.566406 -0.78125 12.398438 0.453125 9.234375 0.453125 Z M 11.125 -4 C 12.5 -4 13.597656 -4.457031 14.421875 -5.375 C 15.242188 -6.300781 15.65625 -7.585938 15.65625 -9.234375 L 15.65625 -11.640625 L 15.25 -11.734375 C 14.894531 -11.441406 14.425781 -11.195312 13.84375 -11 C 13.269531 -10.8125 12.4375 -10.625 11.34375 -10.4375 C 10.050781 -10.226562 9.125 -9.859375 8.5625 -9.328125 C 8 -8.804688 7.71875 -8.066406 7.71875 -7.109375 C 7.71875 -6.097656 8.015625 -5.328125 8.609375 -4.796875 C 9.210938 -4.265625 10.050781 -4 11.125 -4 Z M 11.125 -4 "/></g></g></g><g fill="#000000" fill-opacity="1"><g transform="translate(395.722312, 453.297259)"><g><path d="M 15.046875 -12.640625 L 1.875 -12.640625 L 1.875 -17.875 L 15.046875 -17.875 Z M 15.046875 -12.640625 "/></g></g></g><g fill="#000000" fill-opacity="1"><g transform="translate(412.670473, 453.297259)"><g><path d="M 11.09375 0.453125 C 9.46875 0.453125 7.984375 0.265625 6.640625 -0.109375 C 5.296875 -0.492188 4.144531 -1.019531 3.1875 -1.6875 C 2.238281 -2.351562 1.535156 -3.113281 1.078125 -3.96875 L 4.390625 -7.546875 L 4.828125 -7.546875 C 5.617188 -6.484375 6.550781 -5.6875 7.625 -5.15625 C 8.695312 -4.625 9.863281 -4.359375 11.125 -4.359375 C 12.289062 -4.359375 13.164062 -4.566406 13.75 -4.984375 C 14.332031 -5.398438 14.625 -5.992188 14.625 -6.765625 C 14.625 -7.367188 14.410156 -7.875 13.984375 -8.28125 C 13.566406 -8.6875 12.890625 -9.003906 11.953125 -9.234375 L 8.8125 -9.984375 C 6.457031 -10.546875 4.738281 -11.398438 3.65625 -12.546875 C 2.582031 -13.703125 2.046875 -15.171875 2.046875 -16.953125 C 2.046875 -18.429688 2.421875 -19.710938 3.171875 -20.796875 C 3.921875 -21.890625 4.976562 -22.722656 6.34375 -23.296875 C 7.71875 -23.867188 9.3125 -24.15625 11.125 -24.15625 C 13.257812 -24.15625 15.03125 -23.84375 16.4375 -23.21875 C 17.84375 -22.601562 18.9375 -21.78125 19.71875 -20.75 L 16.546875 -17.3125 L 16.109375 -17.3125 C 15.453125 -18.0625 14.710938 -18.609375 13.890625 -18.953125 C 13.066406 -19.296875 12.144531 -19.46875 11.125 -19.46875 C 8.78125 -19.46875 7.609375 -18.738281 7.609375 -17.28125 C 7.609375 -16.65625 7.828125 -16.148438 8.265625 -15.765625 C 8.703125 -15.378906 9.472656 -15.066406 10.578125 -14.828125 L 13.5 -14.1875 C 15.90625 -13.664062 17.660156 -12.832031 18.765625 -11.6875 C 19.878906 -10.550781 20.4375 -9.023438 20.4375 -7.109375 C 20.4375 -5.609375 20.0625 -4.285156 19.3125 -3.140625 C 18.570312 -1.992188 17.5 -1.109375 16.09375 -0.484375 C 14.6875 0.140625 13.019531 0.453125 11.09375 0.453125 Z M 11.09375 0.453125 "/></g></g></g><g fill="#000000" fill-opacity="1"><g transform="translate(434.516202, 453.297259)"><g><path d="M 10.84375 0.453125 C 8.1875 0.453125 6.222656 -0.269531 4.953125 -1.71875 C 3.679688 -3.175781 3.046875 -5.269531 3.046875 -8 L 3.046875 -23.703125 L 9 -23.703125 L 9 -8.75 C 9 -7.300781 9.3125 -6.242188 9.9375 -5.578125 C 10.5625 -4.910156 11.523438 -4.578125 12.828125 -4.578125 C 14.472656 -4.578125 15.753906 -5.117188 16.671875 -6.203125 C 17.585938 -7.285156 18.046875 -8.984375 18.046875 -11.296875 L 18.046875 -23.703125 L 24 -23.703125 L 24 0 L 18.28125 0 L 18.28125 -3.484375 L 17.828125 -3.59375 C 17.066406 -2.226562 16.140625 -1.210938 15.046875 -0.546875 C 13.953125 0.117188 12.550781 0.453125 10.84375 0.453125 Z M 10.84375 0.453125 "/></g></g></g><g fill="#000000" fill-opacity="1"><g transform="translate(461.925395, 453.297259)"><g><path d="M 16.34375 -5.65625 L 17.890625 -1.25 C 17.253906 -0.71875 16.445312 -0.300781 15.46875 0 C 14.5 0.300781 13.394531 0.453125 12.15625 0.453125 C 9.59375 0.453125 7.644531 -0.242188 6.3125 -1.640625 C 4.976562 -3.035156 4.3125 -5.066406 4.3125 -7.734375 L 4.3125 -19 L 0.703125 -19 L 0.703125 -23.71875 L 4.3125 -23.71875 L 4.3125 -28.34375 L 10.265625 -29.3125 L 10.265625 -23.71875 L 17 -23.71875 L 17 -19 L 10.265625 -19 L 10.265625 -8.171875 C 10.265625 -6.992188 10.507812 -6.132812 11 -5.59375 C 11.488281 -5.0625 12.195312 -4.796875 13.125 -4.796875 C 14.1875 -4.796875 15.113281 -5.082031 15.90625 -5.65625 Z M 16.34375 -5.65625 "/></g></g></g><g fill="#000000" fill-opacity="1"><g transform="translate(339.849897, 521.547255)"><g><path d="M 17.203125 0 L 11 0 L 11 -12.328125 L 0.15625 -31.40625 L 6.8125 -31.40625 L 13.984375 -19.0625 L 14.53125 -19.0625 L 21.546875 -31.40625 L 28.0625 -31.40625 L 17.203125 -12.328125 Z M 17.203125 0 "/></g></g></g><g fill="#000000" fill-opacity="1"><g transform="translate(368.053871, 521.547255)"><g><path d="M 9.234375 0.453125 C 7.722656 0.453125 6.40625 0.175781 5.28125 -0.375 C 4.164062 -0.9375 3.304688 -1.757812 2.703125 -2.84375 C 2.109375 -3.925781 1.8125 -5.226562 1.8125 -6.75 C 1.8125 -8.15625 2.109375 -9.332031 2.703125 -10.28125 C 3.304688 -11.226562 4.238281 -12.003906 5.5 -12.609375 C 6.757812 -13.222656 8.40625 -13.695312 10.4375 -14.03125 C 11.851562 -14.257812 12.929688 -14.507812 13.671875 -14.78125 C 14.410156 -15.050781 14.910156 -15.359375 15.171875 -15.703125 C 15.429688 -16.046875 15.5625 -16.484375 15.5625 -17.015625 C 15.5625 -17.773438 15.296875 -18.351562 14.765625 -18.75 C 14.234375 -19.15625 13.351562 -19.359375 12.125 -19.359375 C 10.800781 -19.359375 9.546875 -19.0625 8.359375 -18.46875 C 7.171875 -17.882812 6.140625 -17.113281 5.265625 -16.15625 L 4.828125 -16.15625 L 2.34375 -19.921875 C 3.539062 -21.253906 5.003906 -22.289062 6.734375 -23.03125 C 8.472656 -23.78125 10.367188 -24.15625 12.421875 -24.15625 C 15.554688 -24.15625 17.820312 -23.488281 19.21875 -22.15625 C 20.625 -20.820312 21.328125 -18.929688 21.328125 -16.484375 L 21.328125 -6.1875 C 21.328125 -5.125 21.796875 -4.59375 22.734375 -4.59375 C 23.085938 -4.59375 23.4375 -4.660156 23.78125 -4.796875 L 24.078125 -4.703125 L 24.515625 -0.5625 C 24.179688 -0.34375 23.722656 -0.164062 23.140625 -0.03125 C 22.554688 0.101562 21.910156 0.171875 21.203125 0.171875 C 19.785156 0.171875 18.675781 -0.0976562 17.875 -0.640625 C 17.082031 -1.191406 16.515625 -2.046875 16.171875 -3.203125 L 15.734375 -3.25 C 14.566406 -0.78125 12.398438 0.453125 9.234375 0.453125 Z M 11.125 -4 C 12.5 -4 13.597656 -4.457031 14.421875 -5.375 C 15.242188 -6.300781 15.65625 -7.585938 15.65625 -9.234375 L 15.65625 -11.640625 L 15.25 -11.734375 C 14.894531 -11.441406 14.425781 -11.195312 13.84375 -11 C 13.269531 -10.8125 12.4375 -10.625 11.34375 -10.4375 C 10.050781 -10.226562 9.125 -9.859375 8.5625 -9.328125 C 8 -8.804688 7.71875 -8.066406 7.71875 -7.109375 C 7.71875 -6.097656 8.015625 -5.328125 8.609375 -4.796875 C 9.210938 -4.265625 10.050781 -4 11.125 -4 Z M 11.125 -4 "/></g></g></g><g fill="#000000" fill-opacity="1"><g transform="translate(393.035762, 521.547255)"><g><path d="M 15.046875 -12.640625 L 1.875 -12.640625 L 1.875 -17.875 L 15.046875 -17.875 Z M 15.046875 -12.640625 "/></g></g></g><g fill="#000000" fill-opacity="1"><g transform="translate(409.983923, 521.547255)"><g><path d="M 11.09375 0.453125 C 9.46875 0.453125 7.984375 0.265625 6.640625 -0.109375 C 5.296875 -0.492188 4.144531 -1.019531 3.1875 -1.6875 C 2.238281 -2.351562 1.535156 -3.113281 1.078125 -3.96875 L 4.390625 -7.546875 L 4.828125 -7.546875 C 5.617188 -6.484375 6.550781 -5.6875 7.625 -5.15625 C 8.695312 -4.625 9.863281 -4.359375 11.125 -4.359375 C 12.289062 -4.359375 13.164062 -4.566406 13.75 -4.984375 C 14.332031 -5.398438 14.625 -5.992188 14.625 -6.765625 C 14.625 -7.367188 14.410156 -7.875 13.984375 -8.28125 C 13.566406 -8.6875 12.890625 -9.003906 11.953125 -9.234375 L 8.8125 -9.984375 C 6.457031 -10.546875 4.738281 -11.398438 3.65625 -12.546875 C 2.582031 -13.703125 2.046875 -15.171875 2.046875 -16.953125 C 2.046875 -18.429688 2.421875 -19.710938 3.171875 -20.796875 C 3.921875 -21.890625 4.976562 -22.722656 6.34375 -23.296875 C 7.71875 -23.867188 9.3125 -24.15625 11.125 -24.15625 C 13.257812 -24.15625 15.03125 -23.84375 16.4375 -23.21875 C 17.84375 -22.601562 18.9375 -21.78125 19.71875 -20.75 L 16.546875 -17.3125 L 16.109375 -17.3125 C 15.453125 -18.0625 14.710938 -18.609375 13.890625 -18.953125 C 13.066406 -19.296875 12.144531 -19.46875 11.125 -19.46875 C 8.78125 -19.46875 7.609375 -18.738281 7.609375 -17.28125 C 7.609375 -16.65625 7.828125 -16.148438 8.265625 -15.765625 C 8.703125 -15.378906 9.472656 -15.066406 10.578125 -14.828125 L 13.5 -14.1875 C 15.90625 -13.664062 17.660156 -12.832031 18.765625 -11.6875 C 19.878906 -10.550781 20.4375 -9.023438 20.4375 -7.109375 C 20.4375 -5.609375 20.0625 -4.285156 19.3125 -3.140625 C 18.570312 -1.992188 17.5 -1.109375 16.09375 -0.484375 C 14.6875 0.140625 13.019531 0.453125 11.09375 0.453125 Z M 11.09375 0.453125 "/></g></g></g><g fill="#000000" fill-opacity="1"><g transform="translate(431.829652, 521.547255)"><g><path d="M 10.84375 0.453125 C 8.1875 0.453125 6.222656 -0.269531 4.953125 -1.71875 C 3.679688 -3.175781 3.046875 -5.269531 3.046875 -8 L 3.046875 -23.703125 L 9 -23.703125 L 9 -8.75 C 9 -7.300781 9.3125 -6.242188 9.9375 -5.578125 C 10.5625 -4.910156 11.523438 -4.578125 12.828125 -4.578125 C 14.472656 -4.578125 15.753906 -5.117188 16.671875 -6.203125 C 17.585938 -7.285156 18.046875 -8.984375 18.046875 -11.296875 L 18.046875 -23.703125 L 24 -23.703125 L 24 0 L 18.28125 0 L 18.28125 -3.484375 L 17.828125 -3.59375 C 17.066406 -2.226562 16.140625 -1.210938 15.046875 -0.546875 C 13.953125 0.117188 12.550781 0.453125 10.84375 0.453125 Z M 10.84375 0.453125 "/></g></g></g><g fill="#000000" fill-opacity="1"><g transform="translate(459.238845, 521.547255)"><g><path d="M 16.34375 -5.65625 L 17.890625 -1.25 C 17.253906 -0.71875 16.445312 -0.300781 15.46875 0 C 14.5 0.300781 13.394531 0.453125 12.15625 0.453125 C 9.59375 0.453125 7.644531 -0.242188 6.3125 -1.640625 C 4.976562 -3.035156 4.3125 -5.066406 4.3125 -7.734375 L 4.3125 -19 L 0.703125 -19 L 0.703125 -23.71875 L 4.3125 -23.71875 L 4.3125 -28.34375 L 10.265625 -29.3125 L 10.265625 -23.71875 L 17 -23.71875 L 17 -19 L 10.265625 -19 L 10.265625 -8.171875 C 10.265625 -6.992188 10.507812 -6.132812 11 -5.59375 C 11.488281 -5.0625 12.195312 -4.796875 13.125 -4.796875 C 14.1875 -4.796875 15.113281 -5.082031 15.90625 -5.65625 Z M 16.34375 -5.65625 "/></g></g></g><g fill="#000000" fill-opacity="1"><g transform="translate(333.11162, 589.797252)"><g><path d="M 10.296875 0 L 4.078125 0 L 4.078125 -31.40625 L 10.296875 -31.40625 Z M 10.296875 0 "/></g></g></g><g fill="#000000" fill-opacity="1"><g transform="translate(347.503595, 589.797252)"><g><path d="M 9.84375 0.453125 C 7.707031 0.453125 6.078125 -0.125 4.953125 -1.28125 C 3.828125 -2.4375 3.265625 -4.1875 3.265625 -6.53125 L 3.265625 -33.21875 L 9.21875 -33.21875 L 9.21875 -6.765625 C 9.21875 -5.316406 9.816406 -4.59375 11.015625 -4.59375 C 11.359375 -4.59375 11.726562 -4.648438 12.125 -4.765625 L 12.421875 -4.6875 L 12.953125 -0.109375 C 12.628906 0.0664062 12.191406 0.203125 11.640625 0.296875 C 11.097656 0.398438 10.5 0.453125 9.84375 0.453125 Z M 9.84375 0.453125 "/></g></g></g><g fill="#000000" fill-opacity="1"><g transform="translate(361.12227, 589.797252)"><g><path d="M 15.046875 -12.640625 L 1.875 -12.640625 L 1.875 -17.875 L 15.046875 -17.875 Z M 15.046875 -12.640625 "/></g></g></g><g fill="#000000" fill-opacity="1"><g transform="translate(378.07043, 589.797252)"><g><path d="M 12.296875 10.0625 C 8.378906 10.0625 5.488281 9.488281 3.625 8.34375 C 1.769531 7.195312 0.84375 5.597656 0.84375 3.546875 C 0.84375 2.296875 1.238281 1.273438 2.03125 0.484375 C 2.820312 -0.304688 3.960938 -0.84375 5.453125 -1.125 L 5.453125 -1.5625 C 4.648438 -2.050781 4.070312 -2.59375 3.71875 -3.1875 C 3.375 -3.78125 3.203125 -4.472656 3.203125 -5.265625 C 3.203125 -7.171875 4.441406 -8.453125 6.921875 -9.109375 L 6.921875 -9.5625 C 5.640625 -10.289062 4.675781 -11.195312 4.03125 -12.28125 C 3.394531 -13.363281 3.078125 -14.671875 3.078125 -16.203125 C 3.078125 -17.773438 3.4375 -19.160156 4.15625 -20.359375 C 4.882812 -21.554688 5.945312 -22.488281 7.34375 -23.15625 C 8.738281 -23.820312 10.410156 -24.15625 12.359375 -24.15625 C 14.328125 -24.15625 15.898438 -23.8125 17.078125 -23.125 C 17.804688 -24.175781 18.226562 -25.398438 18.34375 -26.796875 L 18.796875 -27.078125 L 23.078125 -26.015625 C 22.941406 -24.890625 22.609375 -23.941406 22.078125 -23.171875 C 21.554688 -22.398438 20.734375 -21.71875 19.609375 -21.125 L 19.609375 -20.640625 C 20.941406 -19.472656 21.609375 -17.835938 21.609375 -15.734375 C 21.609375 -14.265625 21.242188 -12.953125 20.515625 -11.796875 C 19.785156 -10.640625 18.722656 -9.722656 17.328125 -9.046875 C 15.929688 -8.367188 14.273438 -8.03125 12.359375 -8.03125 L 11.453125 -8.0625 C 10.878906 -8.082031 10.476562 -8.09375 10.25 -8.09375 C 9.707031 -8.09375 9.28125 -7.945312 8.96875 -7.65625 C 8.664062 -7.363281 8.515625 -6.988281 8.515625 -6.53125 C 8.515625 -6.03125 8.710938 -5.640625 9.109375 -5.359375 C 9.515625 -5.078125 10.101562 -4.925781 10.875 -4.90625 L 16.171875 -4.703125 C 21.421875 -4.546875 24.046875 -2.289062 24.046875 2.0625 C 24.046875 3.59375 23.65625 4.957031 22.875 6.15625 C 22.09375 7.351562 20.828125 8.300781 19.078125 9 C 17.328125 9.707031 15.066406 10.0625 12.296875 10.0625 Z M 12.359375 -12.203125 C 13.503906 -12.203125 14.394531 -12.535156 15.03125 -13.203125 C 15.675781 -13.878906 16 -14.84375 16 -16.09375 C 16 -17.34375 15.675781 -18.296875 15.03125 -18.953125 C 14.394531 -19.617188 13.503906 -19.953125 12.359375 -19.953125 C 11.191406 -19.953125 10.289062 -19.617188 9.65625 -18.953125 C 9.03125 -18.296875 8.71875 -17.34375 8.71875 -16.09375 C 8.71875 -14.832031 9.03125 -13.867188 9.65625 -13.203125 C 10.289062 -12.535156 11.191406 -12.203125 12.359375 -12.203125 Z M 12.296875 5.734375 C 14.328125 5.734375 15.800781 5.445312 16.71875 4.875 C 17.644531 4.300781 18.109375 3.554688 18.109375 2.640625 C 18.109375 1.898438 17.867188 1.351562 17.390625 1 C 16.921875 0.644531 16.171875 0.457031 15.140625 0.4375 L 10.46875 0.21875 C 10.3125 0.21875 10.160156 0.207031 10.015625 0.1875 C 9.878906 0.175781 9.75 0.171875 9.625 0.171875 C 8.625 0.171875 7.859375 0.382812 7.328125 0.8125 C 6.804688 1.25 6.546875 1.84375 6.546875 2.59375 C 6.546875 3.601562 7.023438 4.378906 7.984375 4.921875 C 8.953125 5.460938 10.390625 5.734375 12.296875 5.734375 Z M 12.296875 5.734375 "/></g></g></g><g fill="#000000" fill-opacity="1"><g transform="translate(402.708632, 589.797252)"><g><path d="M 13.765625 0.453125 C 11.453125 0.453125 9.414062 -0.0195312 7.65625 -0.96875 C 5.90625 -1.925781 4.546875 -3.320312 3.578125 -5.15625 C 2.609375 -7 2.125 -9.226562 2.125 -11.84375 C 2.125 -14.445312 2.609375 -16.671875 3.578125 -18.515625 C 4.546875 -20.367188 5.90625 -21.769531 7.65625 -22.71875 C 9.414062 -23.675781 11.453125 -24.15625 13.765625 -24.15625 C 16.085938 -24.15625 18.125 -23.675781 19.875 -22.71875 C 21.632812 -21.769531 23 -20.367188 23.96875 -18.515625 C 24.945312 -16.671875 25.4375 -14.445312 25.4375 -11.84375 C 25.4375 -9.226562 24.945312 -7 23.96875 -5.15625 C 23 -3.320312 21.632812 -1.925781 19.875 -0.96875 C 18.125 -0.0195312 16.085938 0.453125 13.765625 0.453125 Z M 13.765625 -4.59375 C 17.453125 -4.59375 19.296875 -7.007812 19.296875 -11.84375 C 19.296875 -14.34375 18.820312 -16.175781 17.875 -17.34375 C 16.925781 -18.507812 15.554688 -19.09375 13.765625 -19.09375 C 10.085938 -19.09375 8.25 -16.675781 8.25 -11.84375 C 8.25 -7.007812 10.085938 -4.59375 13.765625 -4.59375 Z M 13.765625 -4.59375 "/></g></g></g><g fill="#000000" fill-opacity="1"><g transform="translate(430.246709, 589.797252)"><g><path d="M 3.421875 9.609375 L 3.421875 -23.703125 L 9.375 -23.703125 L 9.375 -20.609375 L 9.8125 -20.515625 C 10.519531 -21.722656 11.457031 -22.628906 12.625 -23.234375 C 13.800781 -23.847656 15.179688 -24.15625 16.765625 -24.15625 C 18.660156 -24.15625 20.320312 -23.703125 21.75 -22.796875 C 23.175781 -21.890625 24.285156 -20.515625 25.078125 -18.671875 C 25.878906 -16.835938 26.28125 -14.5625 26.28125 -11.84375 C 26.28125 -9.132812 25.859375 -6.863281 25.015625 -5.03125 C 24.179688 -3.195312 23.019531 -1.820312 21.53125 -0.90625 C 20.039062 0 18.320312 0.453125 16.375 0.453125 C 14.894531 0.453125 13.617188 0.207031 12.546875 -0.28125 C 11.472656 -0.78125 10.5625 -1.550781 9.8125 -2.59375 L 9.375 -2.515625 L 9.375 9.609375 Z M 14.71875 -4.59375 C 16.488281 -4.59375 17.832031 -5.171875 18.75 -6.328125 C 19.664062 -7.492188 20.125 -9.332031 20.125 -11.84375 C 20.125 -14.34375 19.664062 -16.175781 18.75 -17.34375 C 17.832031 -18.507812 16.488281 -19.09375 14.71875 -19.09375 C 13.050781 -19.09375 11.726562 -18.488281 10.75 -17.28125 C 9.78125 -16.082031 9.296875 -14.269531 9.296875 -11.84375 C 9.296875 -9.414062 9.78125 -7.597656 10.75 -6.390625 C 11.726562 -5.191406 13.050781 -4.59375 14.71875 -4.59375 Z M 14.71875 -4.59375 "/></g></g></g><g fill="#000000" fill-opacity="1"><g transform="translate(458.622528, 589.797252)"><g><path d="M 23.421875 -10.5 L 8.1875 -10.5 C 8.351562 -8.4375 8.9375 -6.9375 9.9375 -6 C 10.945312 -5.0625 12.316406 -4.59375 14.046875 -4.59375 C 15.410156 -4.59375 16.515625 -4.847656 17.359375 -5.359375 C 18.203125 -5.867188 18.882812 -6.640625 19.40625 -7.671875 L 19.859375 -7.671875 L 23.8125 -5.140625 C 23.03125 -3.472656 21.859375 -2.125 20.296875 -1.09375 C 18.742188 -0.0625 16.660156 0.453125 14.046875 0.453125 C 11.597656 0.453125 9.484375 -0.0078125 7.703125 -0.9375 C 5.921875 -1.875 4.546875 -3.257812 3.578125 -5.09375 C 2.609375 -6.9375 2.125 -9.1875 2.125 -11.84375 C 2.125 -14.53125 2.628906 -16.796875 3.640625 -18.640625 C 4.660156 -20.492188 6.035156 -21.875 7.765625 -22.78125 C 9.503906 -23.695312 11.457031 -24.15625 13.625 -24.15625 C 16.976562 -24.15625 19.546875 -23.265625 21.328125 -21.484375 C 23.109375 -19.710938 24 -17.109375 24 -13.671875 C 24 -12.421875 23.957031 -11.453125 23.875 -10.765625 Z M 18.3125 -14.359375 C 18.25 -16.160156 17.828125 -17.472656 17.046875 -18.296875 C 16.265625 -19.117188 15.125 -19.53125 13.625 -19.53125 C 10.613281 -19.53125 8.84375 -17.804688 8.3125 -14.359375 Z M 18.3125 -14.359375 "/></g></g></g><g fill="#000000" fill-opacity="1"><g transform="translate(337.752245, 658.047248)"><g><path d="M 17.203125 0 L 11 0 L 11 -12.328125 L 0.15625 -31.40625 L 6.8125 -31.40625 L 13.984375 -19.0625 L 14.53125 -19.0625 L 21.546875 -31.40625 L 28.0625 -31.40625 L 17.203125 -12.328125 Z M 17.203125 0 "/></g></g></g><g fill="#000000" fill-opacity="1"><g transform="translate(365.956219, 658.047248)"><g><path d="M 10.84375 0.453125 C 8.1875 0.453125 6.222656 -0.269531 4.953125 -1.71875 C 3.679688 -3.175781 3.046875 -5.269531 3.046875 -8 L 3.046875 -23.703125 L 9 -23.703125 L 9 -8.75 C 9 -7.300781 9.3125 -6.242188 9.9375 -5.578125 C 10.5625 -4.910156 11.523438 -4.578125 12.828125 -4.578125 C 14.472656 -4.578125 15.753906 -5.117188 16.671875 -6.203125 C 17.585938 -7.285156 18.046875 -8.984375 18.046875 -11.296875 L 18.046875 -23.703125 L 24 -23.703125 L 24 0 L 18.28125 0 L 18.28125 -3.484375 L 17.828125 -3.59375 C 17.066406 -2.226562 16.140625 -1.210938 15.046875 -0.546875 C 13.953125 0.117188 12.550781 0.453125 10.84375 0.453125 Z M 10.84375 0.453125 "/></g></g></g><g fill="#000000" fill-opacity="1"><g transform="translate(393.365412, 658.047248)"><g><path d="M 15.046875 -12.640625 L 1.875 -12.640625 L 1.875 -17.875 L 15.046875 -17.875 Z M 15.046875 -12.640625 "/></g></g></g><g fill="#000000" fill-opacity="1"><g transform="translate(410.313573, 658.047248)"><g><path d="M 11.703125 0.453125 C 9.828125 0.453125 8.171875 0 6.734375 -0.90625 C 5.296875 -1.820312 4.164062 -3.195312 3.34375 -5.03125 C 2.53125 -6.875 2.125 -9.144531 2.125 -11.84375 C 2.125 -14.550781 2.539062 -16.820312 3.375 -18.65625 C 4.21875 -20.5 5.378906 -21.875 6.859375 -22.78125 C 8.347656 -23.695312 10.066406 -24.15625 12.015625 -24.15625 C 13.484375 -24.15625 14.757812 -23.898438 15.84375 -23.390625 C 16.925781 -22.878906 17.835938 -22.085938 18.578125 -21.015625 L 19.03125 -21.125 L 19.03125 -33.21875 L 24.984375 -33.21875 L 24.984375 0 L 19.03125 0 L 19.03125 -3.078125 L 18.578125 -3.15625 C 17.921875 -2.039062 17.019531 -1.160156 15.875 -0.515625 C 14.726562 0.128906 13.335938 0.453125 11.703125 0.453125 Z M 13.640625 -4.59375 C 15.316406 -4.59375 16.640625 -5.191406 17.609375 -6.390625 C 18.585938 -7.585938 19.078125 -9.40625 19.078125 -11.84375 C 19.078125 -14.269531 18.585938 -16.082031 17.609375 -17.28125 C 16.640625 -18.488281 15.316406 -19.09375 13.640625 -19.09375 C 11.890625 -19.09375 10.550781 -18.507812 9.625 -17.34375 C 8.707031 -16.175781 8.25 -14.34375 8.25 -11.84375 C 8.25 -9.34375 8.707031 -7.507812 9.625 -6.34375 C 10.550781 -5.175781 11.890625 -4.59375 13.640625 -4.59375 Z M 13.640625 -4.59375 "/></g></g></g><g fill="#000000" fill-opacity="1"><g transform="translate(438.710873, 658.047248)"><g><path d="M 10.84375 0.453125 C 8.1875 0.453125 6.222656 -0.269531 4.953125 -1.71875 C 3.679688 -3.175781 3.046875 -5.269531 3.046875 -8 L 3.046875 -23.703125 L 9 -23.703125 L 9 -8.75 C 9 -7.300781 9.3125 -6.242188 9.9375 -5.578125 C 10.5625 -4.910156 11.523438 -4.578125 12.828125 -4.578125 C 14.472656 -4.578125 15.753906 -5.117188 16.671875 -6.203125 C 17.585938 -7.285156 18.046875 -8.984375 18.046875 -11.296875 L 18.046875 -23.703125 L 24 -23.703125 L 24 0 L 18.28125 0 L 18.28125 -3.484375 L 17.828125 -3.59375 C 17.066406 -2.226562 16.140625 -1.210938 15.046875 -0.546875 C 13.953125 0.117188 12.550781 0.453125 10.84375 0.453125 Z M 10.84375 0.453125 "/></g></g></g><g fill="#000000" fill-opacity="1"><g transform="translate(466.120066, 658.047248)"><g><path d="M 9.84375 0.453125 C 7.707031 0.453125 6.078125 -0.125 4.953125 -1.28125 C 3.828125 -2.4375 3.265625 -4.1875 3.265625 -6.53125 L 3.265625 -33.21875 L 9.21875 -33.21875 L 9.21875 -6.765625 C 9.21875 -5.316406 9.816406 -4.59375 11.015625 -4.59375 C 11.359375 -4.59375 11.726562 -4.648438 12.125 -4.765625 L 12.421875 -4.6875 L 12.953125 -0.109375 C 12.628906 0.0664062 12.191406 0.203125 11.640625 0.296875 C 11.097656 0.398438 10.5 0.453125 9.84375 0.453125 Z M 9.84375 0.453125 "/></g></g></g><g fill="#000000" fill-opacity="1"><g transform="translate(343.131147, 726.297245)"><g><path d="M 30.140625 0 L 23.609375 0 L 21.25 -7.234375 L 9.21875 -7.234375 L 6.859375 0 L 0.46875 0 L 11.328125 -31.40625 L 19.296875 -31.40625 Z M 14.9375 -24.859375 L 10.890625 -12.46875 L 19.53125 -12.46875 L 15.46875 -24.859375 Z M 14.9375 -24.859375 "/></g></g></g><g fill="#000000" fill-opacity="1"><g transform="translate(373.740944, 726.297245)"><g><path d="M 15.046875 -12.640625 L 1.875 -12.640625 L 1.875 -17.875 L 15.046875 -17.875 Z M 15.046875 -12.640625 "/></g></g></g><g fill="#000000" fill-opacity="1"><g transform="translate(390.689105, 726.297245)"><g><path d="M 3.421875 0 L 3.421875 -33.21875 L 9.375 -33.21875 L 9.375 -20.609375 L 9.8125 -20.515625 C 10.601562 -21.679688 11.570312 -22.578125 12.71875 -23.203125 C 13.863281 -23.835938 15.242188 -24.15625 16.859375 -24.15625 C 22.085938 -24.15625 24.703125 -21.1875 24.703125 -15.25 L 24.703125 0 L 18.75 0 L 18.75 -14.5 C 18.75 -16.125 18.425781 -17.300781 17.78125 -18.03125 C 17.144531 -18.757812 16.144531 -19.125 14.78125 -19.125 C 13.125 -19.125 11.804688 -18.566406 10.828125 -17.453125 C 9.859375 -16.347656 9.375 -14.617188 9.375 -12.265625 L 9.375 0 Z M 3.421875 0 "/></g></g></g><g fill="#000000" fill-opacity="1"><g transform="translate(418.441987, 726.297245)"><g><path d="M 13.765625 0.453125 C 11.453125 0.453125 9.414062 -0.0195312 7.65625 -0.96875 C 5.90625 -1.925781 4.546875 -3.320312 3.578125 -5.15625 C 2.609375 -7 2.125 -9.226562 2.125 -11.84375 C 2.125 -14.445312 2.609375 -16.671875 3.578125 -18.515625 C 4.546875 -20.367188 5.90625 -21.769531 7.65625 -22.71875 C 9.414062 -23.675781 11.453125 -24.15625 13.765625 -24.15625 C 16.085938 -24.15625 18.125 -23.675781 19.875 -22.71875 C 21.632812 -21.769531 23 -20.367188 23.96875 -18.515625 C 24.945312 -16.671875 25.4375 -14.445312 25.4375 -11.84375 C 25.4375 -9.226562 24.945312 -7 23.96875 -5.15625 C 23 -3.320312 21.632812 -1.925781 19.875 -0.96875 C 18.125 -0.0195312 16.085938 0.453125 13.765625 0.453125 Z M 13.765625 -4.59375 C 17.453125 -4.59375 19.296875 -7.007812 19.296875 -11.84375 C 19.296875 -14.34375 18.820312 -16.175781 17.875 -17.34375 C 16.925781 -18.507812 15.554688 -19.09375 13.765625 -19.09375 C 10.085938 -19.09375 8.25 -16.675781 8.25 -11.84375 C 8.25 -7.007812 10.085938 -4.59375 13.765625 -4.59375 Z M 13.765625 -4.59375 "/></g></g></g><g fill="#000000" fill-opacity="1"><g transform="translate(445.980064, 726.297245)"><g><path d="M 3.421875 9.609375 L 3.421875 -23.703125 L 9.375 -23.703125 L 9.375 -20.609375 L 9.8125 -20.515625 C 10.519531 -21.722656 11.457031 -22.628906 12.625 -23.234375 C 13.800781 -23.847656 15.179688 -24.15625 16.765625 -24.15625 C 18.660156 -24.15625 20.320312 -23.703125 21.75 -22.796875 C 23.175781 -21.890625 24.285156 -20.515625 25.078125 -18.671875 C 25.878906 -16.835938 26.28125 -14.5625 26.28125 -11.84375 C 26.28125 -9.132812 25.859375 -6.863281 25.015625 -5.03125 C 24.179688 -3.195312 23.019531 -1.820312 21.53125 -0.90625 C 20.039062 0 18.320312 0.453125 16.375 0.453125 C 14.894531 0.453125 13.617188 0.207031 12.546875 -0.28125 C 11.472656 -0.78125 10.5625 -1.550781 9.8125 -2.59375 L 9.375 -2.515625 L 9.375 9.609375 Z M 14.71875 -4.59375 C 16.488281 -4.59375 17.832031 -5.171875 18.75 -6.328125 C 19.664062 -7.492188 20.125 -9.332031 20.125 -11.84375 C 20.125 -14.34375 19.664062 -16.175781 18.75 -17.34375 C 17.832031 -18.507812 16.488281 -19.09375 14.71875 -19.09375 C 13.050781 -19.09375 11.726562 -18.488281 10.75 -17.28125 C 9.78125 -16.082031 9.296875 -14.269531 9.296875 -11.84375 C 9.296875 -9.414062 9.78125 -7.597656 10.75 -6.390625 C 11.726562 -5.191406 13.050781 -4.59375 14.71875 -4.59375 Z M 14.71875 -4.59375 "/></g></g></g><g fill="#000000" fill-opacity="1"><g transform="translate(374.127243, 794.547242)"><g><path d="M 17.203125 0 L 11 0 L 11 -12.328125 L 0.15625 -31.40625 L 6.8125 -31.40625 L 13.984375 -19.0625 L 14.53125 -19.0625 L 21.546875 -31.40625 L 28.0625 -31.40625 L 17.203125 -12.328125 Z M 17.203125 0 "/></g></g></g><g fill="#000000" fill-opacity="1"><g transform="translate(402.331217, 794.547242)"><g><path d="M 10.84375 0.453125 C 8.1875 0.453125 6.222656 -0.269531 4.953125 -1.71875 C 3.679688 -3.175781 3.046875 -5.269531 3.046875 -8 L 3.046875 -23.703125 L 9 -23.703125 L 9 -8.75 C 9 -7.300781 9.3125 -6.242188 9.9375 -5.578125 C 10.5625 -4.910156 11.523438 -4.578125 12.828125 -4.578125 C 14.472656 -4.578125 15.753906 -5.117188 16.671875 -6.203125 C 17.585938 -7.285156 18.046875 -8.984375 18.046875 -11.296875 L 18.046875 -23.703125 L 24 -23.703125 L 24 0 L 18.28125 0 L 18.28125 -3.484375 L 17.828125 -3.59375 C 17.066406 -2.226562 16.140625 -1.210938 15.046875 -0.546875 C 13.953125 0.117188 12.550781 0.453125 10.84375 0.453125 Z M 10.84375 0.453125 "/></g></g></g><g fill="#000000" fill-opacity="1"><g transform="translate(429.74041, 794.547242)"><g><path d="M 9.84375 0.453125 C 7.707031 0.453125 6.078125 -0.125 4.953125 -1.28125 C 3.828125 -2.4375 3.265625 -4.1875 3.265625 -6.53125 L 3.265625 -33.21875 L 9.21875 -33.21875 L 9.21875 -6.765625 C 9.21875 -5.316406 9.816406 -4.59375 11.015625 -4.59375 C 11.359375 -4.59375 11.726562 -4.648438 12.125 -4.765625 L 12.421875 -4.6875 L 12.953125 -0.109375 C 12.628906 0.0664062 12.191406 0.203125 11.640625 0.296875 C 11.097656 0.398438 10.5 0.453125 9.84375 0.453125 Z M 9.84375 0.453125 "/></g></g></g><g fill="#000000" fill-opacity="1"><g transform="translate(101.71319, 180.297273)"><g><path d="M 2.234375 0 L 2.234375 -3.046875 L 10.8125 -3.046875 L 10.8125 -27.078125 L 10.3125 -27.203125 C 8.925781 -26.515625 7.707031 -25.988281 6.65625 -25.625 C 5.613281 -25.257812 4.273438 -24.90625 2.640625 -24.5625 L 2.640625 -27.953125 C 4.265625 -28.296875 5.863281 -28.757812 7.4375 -29.34375 C 9.019531 -29.9375 10.457031 -30.625 11.75 -31.40625 L 14.421875 -31.40625 L 14.421875 -3.046875 L 22.09375 -3.046875 L 22.09375 0 Z M 2.234375 0 "/></g></g></g><g fill="#000000" fill-opacity="1"><g transform="translate(125.127251, 180.297273)"><g><path d="M 5.78125 0.21875 C 4.96875 0.21875 4.320312 -0.0078125 3.84375 -0.46875 C 3.375 -0.925781 3.140625 -1.535156 3.140625 -2.296875 C 3.140625 -3.046875 3.375 -3.660156 3.84375 -4.140625 C 4.320312 -4.617188 4.96875 -4.859375 5.78125 -4.859375 C 6.613281 -4.859375 7.265625 -4.628906 7.734375 -4.171875 C 8.203125 -3.710938 8.4375 -3.101562 8.4375 -2.34375 C 8.4375 -1.582031 8.195312 -0.960938 7.71875 -0.484375 C 7.238281 -0.015625 6.59375 0.21875 5.78125 0.21875 Z M 5.78125 0.21875 "/></g></g></g><g fill="#000000" fill-opacity="1"><g transform="translate(100.974909, 248.547269)"><g><path d="M 1.890625 -1.4375 C 1.890625 -3.175781 2.078125 -4.570312 2.453125 -5.625 C 2.835938 -6.6875 3.488281 -7.675781 4.40625 -8.59375 C 5.320312 -9.507812 6.78125 -10.695312 8.78125 -12.15625 L 12.25 -14.671875 C 13.519531 -15.609375 14.554688 -16.46875 15.359375 -17.25 C 16.160156 -18.039062 16.796875 -18.894531 17.265625 -19.8125 C 17.734375 -20.738281 17.96875 -21.773438 17.96875 -22.921875 C 17.96875 -24.785156 17.472656 -26.1875 16.484375 -27.125 C 15.492188 -28.070312 13.945312 -28.546875 11.84375 -28.546875 C 10.175781 -28.546875 8.695312 -28.160156 7.40625 -27.390625 C 6.125 -26.617188 5.09375 -25.523438 4.3125 -24.109375 L 3.828125 -24.015625 L 1.609375 -26.34375 C 2.671875 -28.0625 4.0625 -29.410156 5.78125 -30.390625 C 7.507812 -31.367188 9.53125 -31.859375 11.84375 -31.859375 C 14.070312 -31.859375 15.921875 -31.476562 17.390625 -30.71875 C 18.867188 -29.957031 19.957031 -28.90625 20.65625 -27.5625 C 21.363281 -26.226562 21.71875 -24.679688 21.71875 -22.921875 C 21.71875 -21.515625 21.421875 -20.203125 20.828125 -18.984375 C 20.242188 -17.773438 19.414062 -16.628906 18.34375 -15.546875 C 17.269531 -14.472656 15.925781 -13.34375 14.3125 -12.15625 L 10.8125 -9.609375 C 9.507812 -8.648438 8.503906 -7.832031 7.796875 -7.15625 C 7.097656 -6.476562 6.585938 -5.820312 6.265625 -5.1875 C 5.941406 -4.550781 5.78125 -3.835938 5.78125 -3.046875 L 21.71875 -3.046875 L 21.71875 0 L 1.890625 0 Z M 1.890625 -1.4375 "/></g></g></g><g fill="#000000" fill-opacity="1"><g transform="translate(125.127251, 248.547269)"><g><path d="M 5.78125 0.21875 C 4.96875 0.21875 4.320312 -0.0078125 3.84375 -0.46875 C 3.375 -0.925781 3.140625 -1.535156 3.140625 -2.296875 C 3.140625 -3.046875 3.375 -3.660156 3.84375 -4.140625 C 4.320312 -4.617188 4.96875 -4.859375 5.78125 -4.859375 C 6.613281 -4.859375 7.265625 -4.628906 7.734375 -4.171875 C 8.203125 -3.710938 8.4375 -3.101562 8.4375 -2.34375 C 8.4375 -1.582031 8.195312 -0.960938 7.71875 -0.484375 C 7.238281 -0.015625 6.59375 0.21875 5.78125 0.21875 Z M 5.78125 0.21875 "/></g></g></g><g fill="#000000" fill-opacity="1"><g transform="translate(99.603815, 316.797266)"><g><path d="M 12.4375 0.453125 C 9.382812 0.453125 6.960938 -0.234375 5.171875 -1.609375 C 3.390625 -2.984375 2.234375 -4.890625 1.703125 -7.328125 L 4.453125 -8.578125 L 4.9375 -8.484375 C 5.488281 -6.609375 6.332031 -5.203125 7.46875 -4.265625 C 8.601562 -3.335938 10.257812 -2.875 12.4375 -2.875 C 14.65625 -2.875 16.34375 -3.382812 17.5 -4.40625 C 18.664062 -5.425781 19.25 -6.921875 19.25 -8.890625 C 19.25 -10.828125 18.65625 -12.300781 17.46875 -13.3125 C 16.289062 -14.332031 14.4375 -14.84375 11.90625 -14.84375 L 8.484375 -14.84375 L 8.484375 -17.890625 L 11.53125 -17.890625 C 13.507812 -17.890625 15.082031 -18.378906 16.25 -19.359375 C 17.414062 -20.347656 18 -21.738281 18 -23.53125 C 18 -25.226562 17.492188 -26.503906 16.484375 -27.359375 C 15.472656 -28.210938 14.0625 -28.640625 12.25 -28.640625 C 9.082031 -28.640625 6.828125 -27.378906 5.484375 -24.859375 L 4.984375 -24.765625 L 2.921875 -27.03125 C 3.765625 -28.476562 4.976562 -29.644531 6.5625 -30.53125 C 8.15625 -31.414062 10.050781 -31.859375 12.25 -31.859375 C 14.25 -31.859375 15.953125 -31.546875 17.359375 -30.921875 C 18.773438 -30.304688 19.847656 -29.410156 20.578125 -28.234375 C 21.304688 -27.054688 21.671875 -25.648438 21.671875 -24.015625 C 21.671875 -22.472656 21.222656 -21.117188 20.328125 -19.953125 C 19.441406 -18.785156 18.257812 -17.863281 16.78125 -17.1875 L 16.78125 -16.734375 C 18.851562 -16.234375 20.410156 -15.296875 21.453125 -13.921875 C 22.503906 -12.554688 23.03125 -10.878906 23.03125 -8.890625 C 23.03125 -5.910156 22.140625 -3.609375 20.359375 -1.984375 C 18.585938 -0.359375 15.945312 0.453125 12.4375 0.453125 Z M 12.4375 0.453125 "/></g></g></g><g fill="#000000" fill-opacity="1"><g transform="translate(125.127251, 316.797266)"><g><path d="M 5.78125 0.21875 C 4.96875 0.21875 4.320312 -0.0078125 3.84375 -0.46875 C 3.375 -0.925781 3.140625 -1.535156 3.140625 -2.296875 C 3.140625 -3.046875 3.375 -3.660156 3.84375 -4.140625 C 4.320312 -4.617188 4.96875 -4.859375 5.78125 -4.859375 C 6.613281 -4.859375 7.265625 -4.628906 7.734375 -4.171875 C 8.203125 -3.710938 8.4375 -3.101562 8.4375 -2.34375 C 8.4375 -1.582031 8.195312 -0.960938 7.71875 -0.484375 C 7.238281 -0.015625 6.59375 0.21875 5.78125 0.21875 Z M 5.78125 0.21875 "/></g></g></g><g fill="#000000" fill-opacity="1"><g transform="translate(98.502253, 385.047262)"><g><path d="M 19.65625 0 L 16.15625 0 L 16.15625 -7.5 L 1.4375 -7.5 L 1.4375 -10.46875 L 15.296875 -31.40625 L 19.65625 -31.40625 L 19.65625 -10.46875 L 25.09375 -10.46875 L 25.09375 -7.5 L 19.65625 -7.5 Z M 5.78125 -10.921875 L 5.96875 -10.46875 L 16.15625 -10.46875 L 16.15625 -26.296875 L 15.65625 -26.390625 Z M 5.78125 -10.921875 "/></g></g></g><g fill="#000000" fill-opacity="1"><g transform="translate(125.127251, 385.047262)"><g><path d="M 5.78125 0.21875 C 4.96875 0.21875 4.320312 -0.0078125 3.84375 -0.46875 C 3.375 -0.925781 3.140625 -1.535156 3.140625 -2.296875 C 3.140625 -3.046875 3.375 -3.660156 3.84375 -4.140625 C 4.320312 -4.617188 4.96875 -4.859375 5.78125 -4.859375 C 6.613281 -4.859375 7.265625 -4.628906 7.734375 -4.171875 C 8.203125 -3.710938 8.4375 -3.101562 8.4375 -2.34375 C 8.4375 -1.582031 8.195312 -0.960938 7.71875 -0.484375 C 7.238281 -0.015625 6.59375 0.21875 5.78125 0.21875 Z M 5.78125 0.21875 "/></g></g></g><g fill="#000000" fill-opacity="1"><g transform="translate(99.135065, 453.297259)"><g><path d="M 12.9375 0.453125 C 10 0.453125 7.648438 -0.195312 5.890625 -1.5 C 4.140625 -2.800781 3 -4.648438 2.46875 -7.046875 L 5.203125 -8.296875 L 5.6875 -8.203125 C 6.050781 -6.984375 6.519531 -5.988281 7.09375 -5.21875 C 7.675781 -4.445312 8.441406 -3.863281 9.390625 -3.46875 C 10.335938 -3.070312 11.519531 -2.875 12.9375 -2.875 C 15.050781 -2.875 16.695312 -3.507812 17.875 -4.78125 C 19.0625 -6.050781 19.65625 -7.894531 19.65625 -10.3125 C 19.65625 -12.78125 19.070312 -14.65625 17.90625 -15.9375 C 16.75 -17.21875 15.148438 -17.859375 13.109375 -17.859375 C 11.546875 -17.859375 10.273438 -17.539062 9.296875 -16.90625 C 8.328125 -16.28125 7.46875 -15.316406 6.71875 -14.015625 L 3.765625 -14.265625 L 4.359375 -31.40625 L 21.953125 -31.40625 L 21.953125 -28.28125 L 7.578125 -28.28125 L 7.21875 -17.859375 L 7.671875 -17.765625 C 8.410156 -18.859375 9.3125 -19.671875 10.375 -20.203125 C 11.445312 -20.742188 12.726562 -21.015625 14.21875 -21.015625 C 16.09375 -21.015625 17.726562 -20.59375 19.125 -19.75 C 20.53125 -18.914062 21.613281 -17.695312 22.375 -16.09375 C 23.144531 -14.488281 23.53125 -12.5625 23.53125 -10.3125 C 23.53125 -8.082031 23.085938 -6.15625 22.203125 -4.53125 C 21.328125 -2.914062 20.085938 -1.679688 18.484375 -0.828125 C 16.890625 0.0234375 15.039062 0.453125 12.9375 0.453125 Z M 12.9375 0.453125 "/></g></g></g><g fill="#000000" fill-opacity="1"><g transform="translate(125.127251, 453.297259)"><g><path d="M 5.78125 0.21875 C 4.96875 0.21875 4.320312 -0.0078125 3.84375 -0.46875 C 3.375 -0.925781 3.140625 -1.535156 3.140625 -2.296875 C 3.140625 -3.046875 3.375 -3.660156 3.84375 -4.140625 C 4.320312 -4.617188 4.96875 -4.859375 5.78125 -4.859375 C 6.613281 -4.859375 7.265625 -4.628906 7.734375 -4.171875 C 8.203125 -3.710938 8.4375 -3.101562 8.4375 -2.34375 C 8.4375 -1.582031 8.195312 -0.960938 7.71875 -0.484375 C 7.238281 -0.015625 6.59375 0.21875 5.78125 0.21875 Z M 5.78125 0.21875 "/></g></g></g><g fill="#000000" fill-opacity="1"><g transform="translate(96.826472, 521.547255)"><g><path d="M 15 0.453125 C 12.78125 0.453125 10.785156 -0.078125 9.015625 -1.140625 C 7.253906 -2.210938 5.847656 -3.953125 4.796875 -6.359375 C 3.742188 -8.765625 3.21875 -11.878906 3.21875 -15.703125 C 3.21875 -19.410156 3.742188 -22.472656 4.796875 -24.890625 C 5.847656 -27.304688 7.285156 -29.070312 9.109375 -30.1875 C 10.929688 -31.300781 13.007812 -31.859375 15.34375 -31.859375 C 19.363281 -31.859375 22.328125 -30.632812 24.234375 -28.1875 L 22.4375 -25.765625 L 21.890625 -25.765625 C 20.347656 -27.617188 18.164062 -28.546875 15.34375 -28.546875 C 12.625 -28.546875 10.546875 -27.519531 9.109375 -25.46875 C 7.679688 -23.414062 6.96875 -20.132812 6.96875 -15.625 L 7.40625 -15.484375 C 8.269531 -17.265625 9.390625 -18.597656 10.765625 -19.484375 C 12.140625 -20.367188 13.828125 -20.8125 15.828125 -20.8125 C 17.828125 -20.8125 19.550781 -20.390625 21 -19.546875 C 22.457031 -18.703125 23.570312 -17.484375 24.34375 -15.890625 C 25.113281 -14.296875 25.5 -12.410156 25.5 -10.234375 C 25.5 -8.054688 25.066406 -6.164062 24.203125 -4.5625 C 23.347656 -2.957031 22.128906 -1.71875 20.546875 -0.84375 C 18.960938 0.0195312 17.113281 0.453125 15 0.453125 Z M 15 -2.875 C 17.070312 -2.875 18.695312 -3.503906 19.875 -4.765625 C 21.050781 -6.023438 21.640625 -7.847656 21.640625 -10.234375 C 21.640625 -12.617188 21.050781 -14.441406 19.875 -15.703125 C 18.695312 -16.960938 17.070312 -17.59375 15 -17.59375 C 13.582031 -17.59375 12.347656 -17.300781 11.296875 -16.71875 C 10.253906 -16.144531 9.445312 -15.304688 8.875 -14.203125 C 8.3125 -13.097656 8.03125 -11.773438 8.03125 -10.234375 C 8.03125 -8.691406 8.3125 -7.367188 8.875 -6.265625 C 9.445312 -5.171875 10.253906 -4.332031 11.296875 -3.75 C 12.347656 -3.164062 13.582031 -2.875 15 -2.875 Z M 15 -2.875 "/></g></g></g><g fill="#000000" fill-opacity="1"><g transform="translate(125.127251, 521.547255)"><g><path d="M 5.78125 0.21875 C 4.96875 0.21875 4.320312 -0.0078125 3.84375 -0.46875 C 3.375 -0.925781 3.140625 -1.535156 3.140625 -2.296875 C 3.140625 -3.046875 3.375 -3.660156 3.84375 -4.140625 C 4.320312 -4.617188 4.96875 -4.859375 5.78125 -4.859375 C 6.613281 -4.859375 7.265625 -4.628906 7.734375 -4.171875 C 8.203125 -3.710938 8.4375 -3.101562 8.4375 -2.34375 C 8.4375 -1.582031 8.195312 -0.960938 7.71875 -0.484375 C 7.238281 -0.015625 6.59375 0.21875 5.78125 0.21875 Z M 5.78125 0.21875 "/></g></g></g><g fill="#000000" fill-opacity="1"><g transform="translate(103.424128, 589.797252)"><g><path d="M 8.53125 0 L 4.9375 0 L 16.609375 -27.828125 L 16.484375 -28.28125 L 1.15625 -28.28125 L 1.15625 -31.40625 L 20.328125 -31.40625 L 20.328125 -28.015625 Z M 8.53125 0 "/></g></g></g><g fill="#000000" fill-opacity="1"><g transform="translate(125.127251, 589.797252)"><g><path d="M 5.78125 0.21875 C 4.96875 0.21875 4.320312 -0.0078125 3.84375 -0.46875 C 3.375 -0.925781 3.140625 -1.535156 3.140625 -2.296875 C 3.140625 -3.046875 3.375 -3.660156 3.84375 -4.140625 C 4.320312 -4.617188 4.96875 -4.859375 5.78125 -4.859375 C 6.613281 -4.859375 7.265625 -4.628906 7.734375 -4.171875 C 8.203125 -3.710938 8.4375 -3.101562 8.4375 -2.34375 C 8.4375 -1.582031 8.195312 -0.960938 7.71875 -0.484375 C 7.238281 -0.015625 6.59375 0.21875 5.78125 0.21875 Z M 5.78125 0.21875 "/></g></g></g><g fill="#000000" fill-opacity="1"><g transform="translate(98.549128, 658.047248)"><g><path d="M 13.28125 0.453125 C 10.988281 0.453125 9.03125 0.0820312 7.40625 -0.65625 C 5.78125 -1.394531 4.539062 -2.445312 3.6875 -3.8125 C 2.84375 -5.175781 2.421875 -6.789062 2.421875 -8.65625 C 2.421875 -10.644531 2.914062 -12.304688 3.90625 -13.640625 C 4.894531 -14.972656 6.359375 -16.019531 8.296875 -16.78125 L 8.296875 -17.234375 C 6.929688 -18.046875 5.878906 -18.992188 5.140625 -20.078125 C 4.410156 -21.160156 4.046875 -22.4375 4.046875 -23.90625 C 4.046875 -25.507812 4.421875 -26.910156 5.171875 -28.109375 C 5.929688 -29.304688 7.007812 -30.226562 8.40625 -30.875 C 9.800781 -31.53125 11.425781 -31.859375 13.28125 -31.859375 C 15.125 -31.859375 16.75 -31.53125 18.15625 -30.875 C 19.5625 -30.226562 20.640625 -29.304688 21.390625 -28.109375 C 22.148438 -26.910156 22.53125 -25.507812 22.53125 -23.90625 C 22.53125 -22.4375 22.15625 -21.160156 21.40625 -20.078125 C 20.664062 -18.992188 19.617188 -18.046875 18.265625 -17.234375 L 18.265625 -16.78125 C 20.210938 -16.019531 21.679688 -14.972656 22.671875 -13.640625 C 23.660156 -12.304688 24.15625 -10.644531 24.15625 -8.65625 C 24.15625 -6.78125 23.726562 -5.160156 22.875 -3.796875 C 22.03125 -2.441406 20.789062 -1.394531 19.15625 -0.65625 C 17.53125 0.0820312 15.570312 0.453125 13.28125 0.453125 Z M 13.28125 -18.21875 C 14.394531 -18.21875 15.378906 -18.425781 16.234375 -18.84375 C 17.085938 -19.269531 17.753906 -19.878906 18.234375 -20.671875 C 18.710938 -21.472656 18.953125 -22.410156 18.953125 -23.484375 C 18.953125 -24.566406 18.710938 -25.507812 18.234375 -26.3125 C 17.753906 -27.113281 17.082031 -27.726562 16.21875 -28.15625 C 15.363281 -28.59375 14.382812 -28.8125 13.28125 -28.8125 C 11.539062 -28.8125 10.160156 -28.332031 9.140625 -27.375 C 8.128906 -26.425781 7.625 -25.128906 7.625 -23.484375 C 7.625 -21.847656 8.128906 -20.5625 9.140625 -19.625 C 10.160156 -18.6875 11.539062 -18.21875 13.28125 -18.21875 Z M 13.28125 -2.796875 C 15.539062 -2.796875 17.269531 -3.332031 18.46875 -4.40625 C 19.675781 -5.476562 20.28125 -6.972656 20.28125 -8.890625 C 20.28125 -10.796875 19.675781 -12.289062 18.46875 -13.375 C 17.269531 -14.457031 15.539062 -15 13.28125 -15 C 11.019531 -15 9.285156 -14.457031 8.078125 -13.375 C 6.878906 -12.289062 6.28125 -10.796875 6.28125 -8.890625 C 6.28125 -6.972656 6.878906 -5.476562 8.078125 -4.40625 C 9.285156 -3.332031 11.019531 -2.796875 13.28125 -2.796875 Z M 13.28125 -2.796875 "/></g></g></g><g fill="#000000" fill-opacity="1"><g transform="translate(125.127251, 658.047248)"><g><path d="M 5.78125 0.21875 C 4.96875 0.21875 4.320312 -0.0078125 3.84375 -0.46875 C 3.375 -0.925781 3.140625 -1.535156 3.140625 -2.296875 C 3.140625 -3.046875 3.375 -3.660156 3.84375 -4.140625 C 4.320312 -4.617188 4.96875 -4.859375 5.78125 -4.859375 C 6.613281 -4.859375 7.265625 -4.628906 7.734375 -4.171875 C 8.203125 -3.710938 8.4375 -3.101562 8.4375 -2.34375 C 8.4375 -1.582031 8.195312 -0.960938 7.71875 -0.484375 C 7.238281 -0.015625 6.59375 0.21875 5.78125 0.21875 Z M 5.78125 0.21875 "/></g></g></g><g fill="#000000" fill-opacity="1"><g transform="translate(96.849909, 726.297245)"><g><path d="M 13.28125 0.453125 C 10.5625 0.453125 8.351562 -0.164062 6.65625 -1.40625 C 4.957031 -2.644531 3.878906 -4.347656 3.421875 -6.515625 L 6.140625 -7.75 L 6.640625 -7.671875 C 7.140625 -6.078125 7.90625 -4.878906 8.9375 -4.078125 C 9.976562 -3.273438 11.425781 -2.875 13.28125 -2.875 C 15.882812 -2.875 17.875 -3.960938 19.25 -6.140625 C 20.625 -8.316406 21.3125 -11.6875 21.3125 -16.25 L 20.859375 -16.375 C 19.984375 -14.582031 18.875 -13.242188 17.53125 -12.359375 C 16.1875 -11.484375 14.488281 -11.046875 12.4375 -11.046875 C 10.476562 -11.046875 8.769531 -11.46875 7.3125 -12.3125 C 5.863281 -13.164062 4.75 -14.375 3.96875 -15.9375 C 3.1875 -17.5 2.796875 -19.320312 2.796875 -21.40625 C 2.796875 -23.476562 3.222656 -25.304688 4.078125 -26.890625 C 4.941406 -28.472656 6.164062 -29.695312 7.75 -30.5625 C 9.332031 -31.425781 11.175781 -31.859375 13.28125 -31.859375 C 16.957031 -31.859375 19.835938 -30.613281 21.921875 -28.125 C 24.003906 -25.644531 25.046875 -21.628906 25.046875 -16.078125 C 25.046875 -12.316406 24.550781 -9.203125 23.5625 -6.734375 C 22.582031 -4.273438 21.210938 -2.460938 19.453125 -1.296875 C 17.703125 -0.128906 15.644531 0.453125 13.28125 0.453125 Z M 13.28125 -14.265625 C 14.695312 -14.265625 15.925781 -14.539062 16.96875 -15.09375 C 18.019531 -15.65625 18.828125 -16.472656 19.390625 -17.546875 C 19.953125 -18.628906 20.234375 -19.914062 20.234375 -21.40625 C 20.234375 -22.894531 19.953125 -24.175781 19.390625 -25.25 C 18.828125 -26.320312 18.019531 -27.140625 16.96875 -27.703125 C 15.925781 -28.265625 14.695312 -28.546875 13.28125 -28.546875 C 11.195312 -28.546875 9.566406 -27.929688 8.390625 -26.703125 C 7.222656 -25.484375 6.640625 -23.71875 6.640625 -21.40625 C 6.640625 -19.082031 7.222656 -17.3125 8.390625 -16.09375 C 9.566406 -14.875 11.195312 -14.265625 13.28125 -14.265625 Z M 13.28125 -14.265625 "/></g></g></g><g fill="#000000" fill-opacity="1"><g transform="translate(125.127251, 726.297245)"><g><path d="M 5.78125 0.21875 C 4.96875 0.21875 4.320312 -0.0078125 3.84375 -0.46875 C 3.375 -0.925781 3.140625 -1.535156 3.140625 -2.296875 C 3.140625 -3.046875 3.375 -3.660156 3.84375 -4.140625 C 4.320312 -4.617188 4.96875 -4.859375 5.78125 -4.859375 C 6.613281 -4.859375 7.265625 -4.628906 7.734375 -4.171875 C 8.203125 -3.710938 8.4375 -3.101562 8.4375 -2.34375 C 8.4375 -1.582031 8.195312 -0.960938 7.71875 -0.484375 C 7.238281 -0.015625 6.59375 0.21875 5.78125 0.21875 Z M 5.78125 0.21875 "/></g></g></g><g fill="#000000" fill-opacity="1"><g transform="translate(70.822567, 794.547242)"><g><path d="M 2.234375 0 L 2.234375 -3.046875 L 10.8125 -3.046875 L 10.8125 -27.078125 L 10.3125 -27.203125 C 8.925781 -26.515625 7.707031 -25.988281 6.65625 -25.625 C 5.613281 -25.257812 4.273438 -24.90625 2.640625 -24.5625 L 2.640625 -27.953125 C 4.265625 -28.296875 5.863281 -28.757812 7.4375 -29.34375 C 9.019531 -29.9375 10.457031 -30.625 11.75 -31.40625 L 14.421875 -31.40625 L 14.421875 -3.046875 L 22.09375 -3.046875 L 22.09375 0 Z M 2.234375 0 "/></g></g></g><g fill="#000000" fill-opacity="1"><g transform="translate(94.236376, 794.547242)"><g><path d="M 15.453125 0.453125 C 13.140625 0.453125 11.066406 -0.0976562 9.234375 -1.203125 C 7.398438 -2.316406 5.9375 -4.082031 4.84375 -6.5 C 3.757812 -8.914062 3.21875 -11.984375 3.21875 -15.703125 C 3.21875 -19.429688 3.757812 -22.5 4.84375 -24.90625 C 5.9375 -27.320312 7.398438 -29.082031 9.234375 -30.1875 C 11.066406 -31.300781 13.140625 -31.859375 15.453125 -31.859375 C 17.753906 -31.859375 19.820312 -31.300781 21.65625 -30.1875 C 23.488281 -29.082031 24.945312 -27.320312 26.03125 -24.90625 C 27.113281 -22.5 27.65625 -19.429688 27.65625 -15.703125 C 27.65625 -11.984375 27.113281 -8.914062 26.03125 -6.5 C 24.945312 -4.082031 23.488281 -2.316406 21.65625 -1.203125 C 19.820312 -0.0976562 17.753906 0.453125 15.453125 0.453125 Z M 15.453125 -2.96875 C 18.179688 -2.96875 20.25 -3.953125 21.65625 -5.921875 C 23.070312 -7.890625 23.78125 -11.148438 23.78125 -15.703125 C 23.78125 -20.253906 23.070312 -23.515625 21.65625 -25.484375 C 20.25 -27.460938 18.179688 -28.453125 15.453125 -28.453125 C 13.640625 -28.453125 12.117188 -28.035156 10.890625 -27.203125 C 9.660156 -26.367188 8.71875 -25.015625 8.0625 -23.140625 C 7.414062 -21.265625 7.09375 -18.785156 7.09375 -15.703125 C 7.09375 -12.628906 7.414062 -10.148438 8.0625 -8.265625 C 8.71875 -6.390625 9.660156 -5.035156 10.890625 -4.203125 C 12.117188 -3.378906 13.640625 -2.96875 15.453125 -2.96875 Z M 15.453125 -2.96875 "/></g></g></g><g fill="#000000" fill-opacity="1"><g transform="translate(125.127251, 794.547242)"><g><path d="M 5.78125 0.21875 C 4.96875 0.21875 4.320312 -0.0078125 3.84375 -0.46875 C 3.375 -0.925781 3.140625 -1.535156 3.140625 -2.296875 C 3.140625 -3.046875 3.375 -3.660156 3.84375 -4.140625 C 4.320312 -4.617188 4.96875 -4.859375 5.78125 -4.859375 C 6.613281 -4.859375 7.265625 -4.628906 7.734375 -4.171875 C 8.203125 -3.710938 8.4375 -3.101562 8.4375 -2.34375 C 8.4375 -1.582031 8.195312 -0.960938 7.71875 -0.484375 C 7.238281 -0.015625 6.59375 0.21875 5.78125 0.21875 Z M 5.78125 0.21875 "/></g></g></g><g fill="#000000" fill-opacity="1"><g transform="translate(635.926493, 180.297273)"><g><path d="M 13.902344 -8.535156 C 10.339844 -8.535156 7.742188 -11.085938 7.742188 -14.605469 C 7.742188 -18.171875 10.339844 -20.722656 13.902344 -20.722656 C 17.511719 -20.722656 20.105469 -18.171875 20.105469 -14.605469 C 20.105469 -11.085938 17.511719 -8.535156 13.902344 -8.535156 Z M 13.902344 -23.714844 C 8.359375 -23.714844 4.355469 -19.929688 4.355469 -14.605469 C 4.355469 -9.238281 8.359375 -5.542969 13.902344 -5.542969 C 19.535156 -5.542969 23.539062 -9.238281 23.539062 -14.605469 C 23.539062 -19.929688 19.535156 -23.714844 13.902344 -23.714844 Z M 15.664062 -35.722656 L 12.054688 -35.722656 L 12.054688 -29.871094 L 2.113281 -29.871094 L 2.113281 -26.96875 L 25.386719 -26.96875 L 25.386719 -29.871094 L 15.664062 -29.871094 Z M 39.199219 -19.972656 L 32.730469 -19.972656 L 32.730469 -36.164062 L 29.125 -36.164062 L 29.125 3.253906 L 32.730469 3.253906 L 32.730469 -16.9375 L 39.199219 -16.9375 Z M 39.199219 -19.972656 "/></g></g></g><g fill="#000000" fill-opacity="1"><g transform="translate(676.399277, 180.297273)"><g><path d="M 7.480469 -32.378906 L 3.914062 -32.378906 L 3.914062 -6.730469 L 7.039062 -6.730469 C 13.066406 -6.730469 19.09375 -7.171875 25.824219 -8.535156 L 25.386719 -11.527344 C 19.003906 -10.25 13.15625 -9.765625 7.480469 -9.765625 Z M 39.023438 -20.457031 L 32.6875 -20.457031 L 32.6875 -36.207031 L 29.082031 -36.207031 L 29.082031 3.253906 L 32.6875 3.253906 L 32.6875 -17.464844 L 39.023438 -17.464844 Z M 39.023438 -20.457031 "/></g></g></g><g fill="#000000" fill-opacity="1"><g transform="translate(652.651147, 240.130086)"><g><path d="M 33.789062 -25.691406 L 10.691406 -25.691406 L 10.691406 -31.808594 L 33.390625 -31.808594 L 33.390625 -34.710938 L 7.082031 -34.710938 L 7.082031 -22.789062 L 33.789062 -22.789062 Z M 38.011719 -16.71875 L 38.011719 -19.621094 L 2.289062 -19.621094 L 2.289062 -16.71875 L 18.390625 -16.71875 L 18.390625 -12.800781 L 6.597656 -12.800781 L 6.597656 -10.074219 L 29.871094 -10.074219 L 29.871094 -6.597656 L 6.730469 -6.597656 L 6.730469 2.773438 L 34.625 2.773438 L 34.625 0 L 10.25 0 L 10.25 -3.960938 L 33.4375 -3.960938 L 33.4375 -12.800781 L 21.996094 -12.800781 L 21.996094 -16.71875 Z M 38.011719 -16.71875 "/></g></g></g><g fill="#000000" fill-opacity="1"><g transform="translate(650.773339, 299.962915)"><g><path d="M 35.636719 -36.207031 L 32.160156 -36.207031 L 32.160156 -9.328125 L 35.636719 -9.328125 Z M 24.460938 -12.980469 L 27.847656 -12.980469 L 27.847656 -35.328125 L 24.460938 -35.328125 L 24.460938 -27.1875 L 18.300781 -27.1875 L 18.300781 -24.242188 L 24.460938 -24.242188 Z M 21.777344 -17.464844 C 16.851562 -19.578125 13.992188 -24.152344 13.992188 -28.683594 L 13.992188 -33.832031 L 10.515625 -33.832031 L 10.515625 -28.683594 C 10.515625 -24.195312 7.480469 -19.050781 2.375 -16.761719 L 4.3125 -13.992188 C 8.09375 -15.707031 10.824219 -19.003906 12.230469 -22.703125 C 13.59375 -19.269531 16.191406 -16.320312 19.796875 -14.738281 Z M 24.460938 -11.21875 L 20.808594 -11.21875 L 20.808594 -9.988281 C 20.808594 -4.925781 14.429688 -0.746094 7.433594 0.265625 L 8.800781 3.078125 C 14.738281 2.113281 20.238281 -0.878906 22.65625 -5.191406 C 25.03125 -0.878906 30.53125 2.113281 36.515625 3.078125 L 37.878906 0.265625 C 30.882812 -0.746094 24.460938 -4.925781 24.460938 -9.988281 Z M 24.460938 -11.21875 "/></g></g></g><g fill="#000000" fill-opacity="1"><g transform="translate(691.249899, 299.962915)"><g/></g></g><g fill="#000000" fill-opacity="1"><g transform="translate(650.773339, 380.581232)"><g><path d="M 35.769531 -36.207031 L 32.335938 -36.207031 L 32.335938 -9.503906 L 35.769531 -9.503906 Z M 24.417969 -13.023438 L 27.847656 -13.023438 L 27.847656 -35.371094 L 24.417969 -35.371094 L 24.417969 -27.1875 L 16.015625 -27.1875 L 16.015625 -24.285156 L 24.417969 -24.285156 Z M 20.675781 -18.699219 C 16.058594 -17.730469 12.054688 -17.421875 8.007812 -17.378906 L 8.007812 -32.644531 L 4.445312 -32.644531 L 4.445312 -14.386719 L 6.953125 -14.386719 C 11.570312 -14.386719 15.839844 -14.648438 21.03125 -15.75 Z M 24.328125 -11.484375 L 20.722656 -11.484375 L 20.722656 -10.074219 C 20.722656 -4.972656 14.34375 -0.746094 7.433594 0.308594 L 8.753906 3.125 C 14.605469 2.113281 20.105469 -0.878906 22.527344 -5.234375 C 24.945312 -0.878906 30.488281 2.113281 36.339844 3.125 L 37.703125 0.308594 C 30.753906 -0.746094 24.328125 -4.972656 24.328125 -10.074219 Z M 24.328125 -11.484375 "/></g></g></g><g fill="#000000" fill-opacity="1"><g transform="translate(691.249899, 380.581232)"><g/></g></g><g fill="#000000" fill-opacity="1"><g transform="translate(628.655372, 453.843165)"><g><path d="M 7.609375 -29.433594 L 22.347656 -29.433594 L 22.347656 -32.425781 L 4.003906 -32.425781 L 4.003906 -6.511719 L 7.128906 -6.511719 C 14.5625 -6.511719 19.753906 -6.773438 25.78125 -7.917969 L 25.386719 -10.910156 C 19.664062 -9.898438 14.605469 -9.589844 7.609375 -9.589844 Z M 39.199219 -20.632812 L 32.6875 -20.632812 L 32.6875 -36.207031 L 29.082031 -36.207031 L 29.082031 3.34375 L 32.6875 3.34375 L 32.6875 -17.640625 L 39.199219 -17.640625 Z M 39.199219 -20.632812 "/></g></g></g><g fill="#000000" fill-opacity="1"><g transform="translate(669.128156, 453.843165)"><g><path d="M 31.238281 -8.800781 L 34.84375 -8.800781 L 34.84375 -36.164062 L 31.238281 -36.164062 L 31.238281 -28.113281 L 22.613281 -28.113281 L 22.613281 -25.164062 L 31.238281 -25.164062 Z M 25.339844 -17.421875 C 19.621094 -19.445312 15.707031 -24.503906 15.707031 -29.871094 L 15.707031 -34.226562 L 12.144531 -34.226562 L 12.144531 -30.09375 C 12.144531 -24.066406 8.359375 -18.742188 2.375 -16.542969 L 4.265625 -13.683594 C 8.886719 -15.441406 12.363281 -19.050781 13.992188 -23.582031 C 15.75 -19.488281 19.09375 -16.234375 23.40625 -14.648438 Z M 23.976562 -11.527344 L 20.28125 -11.527344 L 20.28125 -10.425781 C 20.28125 -5.148438 13.945312 -0.878906 6.953125 0.265625 L 8.359375 3.125 C 14.296875 2.023438 19.710938 -1.011719 22.128906 -5.410156 C 24.503906 -0.925781 29.871094 2.023438 35.855469 3.125 L 37.308594 0.265625 C 30.222656 -0.878906 23.976562 -5.015625 23.976562 -10.425781 Z M 23.976562 -11.527344 "/></g></g></g><g fill="#000000" fill-opacity="1"><g transform="translate(709.608493, 453.843165)"><g/></g></g><g fill="#000000" fill-opacity="1"><g transform="translate(632.410868, 527.105129)"><g><path d="M 22.261719 -14.914062 C 22.527344 -16.277344 22.703125 -17.773438 22.703125 -19.402344 C 22.703125 -21.207031 22.480469 -22.878906 22.128906 -24.417969 L 31.238281 -24.417969 L 31.238281 -14.914062 Z M 12.890625 -8.84375 C 9.105469 -8.84375 6.46875 -12.980469 6.46875 -19.402344 C 6.46875 -25.78125 9.105469 -29.917969 12.890625 -29.917969 C 16.628906 -29.917969 19.3125 -25.78125 19.3125 -19.402344 C 19.3125 -12.980469 16.628906 -8.84375 12.890625 -8.84375 Z M 31.238281 -36.207031 L 31.238281 -27.363281 L 21.117188 -27.363281 C 19.445312 -31.058594 16.542969 -33.171875 12.890625 -33.171875 C 7.128906 -33.171875 3.035156 -27.804688 3.035156 -19.402344 C 3.035156 -11 7.128906 -5.632812 12.890625 -5.632812 C 16.675781 -5.632812 19.753906 -7.964844 21.382812 -11.964844 L 31.238281 -11.964844 L 31.238281 3.34375 L 34.84375 3.34375 L 34.84375 -36.207031 Z M 31.238281 -36.207031 "/></g></g></g><g fill="#000000" fill-opacity="1"><g transform="translate(672.883652, 527.105129)"><g><path d="M 31.238281 -8.800781 L 34.84375 -8.800781 L 34.84375 -36.164062 L 31.238281 -36.164062 L 31.238281 -28.113281 L 22.613281 -28.113281 L 22.613281 -25.164062 L 31.238281 -25.164062 Z M 25.339844 -17.421875 C 19.621094 -19.445312 15.707031 -24.503906 15.707031 -29.871094 L 15.707031 -34.226562 L 12.144531 -34.226562 L 12.144531 -30.09375 C 12.144531 -24.066406 8.359375 -18.742188 2.375 -16.542969 L 4.265625 -13.683594 C 8.886719 -15.441406 12.363281 -19.050781 13.992188 -23.582031 C 15.75 -19.488281 19.09375 -16.234375 23.40625 -14.648438 Z M 23.976562 -11.527344 L 20.28125 -11.527344 L 20.28125 -10.425781 C 20.28125 -5.148438 13.945312 -0.878906 6.953125 0.265625 L 8.359375 3.125 C 14.296875 2.023438 19.710938 -1.011719 22.128906 -5.410156 C 24.503906 -0.925781 29.871094 2.023438 35.855469 3.125 L 37.308594 0.265625 C 30.222656 -0.878906 23.976562 -5.015625 23.976562 -10.425781 Z M 23.976562 -11.527344 "/></g></g></g><g fill="#000000" fill-opacity="1"><g transform="translate(632.410868, 593.010686)"><g><path d="M 34.710938 -36.207031 L 31.105469 -36.207031 L 31.105469 -15.96875 L 34.710938 -15.96875 Z M 6.730469 -26 C 6.730469 -29.433594 9.589844 -31.851562 13.417969 -31.851562 C 17.289062 -31.851562 20.105469 -29.433594 20.105469 -26 C 20.105469 -22.613281 17.289062 -20.195312 13.417969 -20.195312 C 9.589844 -20.195312 6.730469 -22.613281 6.730469 -26 Z M 23.625 -26 C 23.625 -31.238281 19.3125 -34.800781 13.417969 -34.800781 C 7.523438 -34.800781 3.253906 -31.238281 3.253906 -26 C 3.253906 -20.808594 7.523438 -17.289062 13.417969 -17.289062 C 19.3125 -17.289062 23.625 -20.808594 23.625 -26 Z M 12.800781 -0.132812 L 12.800781 -4.488281 L 34.710938 -4.488281 L 34.710938 -14.035156 L 9.152344 -14.035156 L 9.152344 -11.175781 L 31.148438 -11.175781 L 31.148438 -7.171875 L 9.238281 -7.171875 L 9.238281 2.726562 L 36.03125 2.726562 L 36.03125 -0.132812 Z M 12.800781 -0.132812 "/></g></g></g><g fill="#000000" fill-opacity="1"><g transform="translate(672.883652, 593.010686)"><g><path d="M 32.425781 -21.425781 C 33.480469 -25.648438 33.480469 -28.90625 33.480469 -31.765625 L 33.480469 -34.625 L 6.554688 -34.625 L 6.554688 -31.675781 L 29.917969 -31.675781 C 29.917969 -28.949219 29.917969 -25.914062 28.859375 -21.777344 Z M 29.742188 -0.175781 L 10.558594 -0.175781 L 10.558594 -5.410156 L 29.742188 -5.410156 Z M 29.742188 -8.183594 L 10.558594 -8.183594 L 10.558594 -13.023438 L 6.953125 -13.023438 L 6.953125 2.726562 L 33.347656 2.726562 L 33.347656 -13.023438 L 29.742188 -13.023438 Z M 20.589844 -19.269531 L 20.589844 -26.265625 L 16.980469 -26.265625 L 16.980469 -19.269531 L 2.375 -19.269531 L 2.375 -16.320312 L 38.011719 -16.320312 L 38.011719 -19.269531 Z M 20.589844 -19.269531 "/></g></g></g><g fill="#000000" fill-opacity="1"><g transform="translate(713.363989, 593.010686)"><g/></g></g><g fill="#000000" fill-opacity="1"><g transform="translate(632.410868, 658.916243)"><g><path d="M 22.261719 -14.914062 C 22.527344 -16.277344 22.703125 -17.773438 22.703125 -19.402344 C 22.703125 -21.207031 22.480469 -22.878906 22.128906 -24.417969 L 31.238281 -24.417969 L 31.238281 -14.914062 Z M 12.890625 -8.84375 C 9.105469 -8.84375 6.46875 -12.980469 6.46875 -19.402344 C 6.46875 -25.78125 9.105469 -29.917969 12.890625 -29.917969 C 16.628906 -29.917969 19.3125 -25.78125 19.3125 -19.402344 C 19.3125 -12.980469 16.628906 -8.84375 12.890625 -8.84375 Z M 31.238281 -36.207031 L 31.238281 -27.363281 L 21.117188 -27.363281 C 19.445312 -31.058594 16.542969 -33.171875 12.890625 -33.171875 C 7.128906 -33.171875 3.035156 -27.804688 3.035156 -19.402344 C 3.035156 -11 7.128906 -5.632812 12.890625 -5.632812 C 16.675781 -5.632812 19.753906 -7.964844 21.382812 -11.964844 L 31.238281 -11.964844 L 31.238281 3.34375 L 34.84375 3.34375 L 34.84375 -36.207031 Z M 31.238281 -36.207031 "/></g></g></g><g fill="#000000" fill-opacity="1"><g transform="translate(672.883652, 658.916243)"><g><path d="M 24.855469 -20.195312 C 19.796875 -19.226562 15.441406 -19.003906 8.183594 -19.003906 L 8.183594 -30.882812 L 22.570312 -30.882812 L 22.570312 -33.746094 L 4.574219 -33.746094 L 4.574219 -16.144531 L 7.566406 -16.144531 C 15.355469 -16.144531 19.886719 -16.367188 25.253906 -17.378906 Z M 10.601562 -4.355469 L 19.753906 -4.355469 L 19.753906 -13.375 L 6.996094 -13.375 L 6.996094 -10.648438 L 16.277344 -10.648438 L 16.277344 -6.996094 L 7.082031 -6.996094 L 7.082031 2.726562 L 9.195312 2.726562 C 14.429688 2.726562 17.246094 2.683594 20.941406 1.980469 L 20.589844 -0.746094 C 17.378906 -0.175781 14.828125 -0.0898438 10.601562 -0.0898438 Z M 31.5 -0.132812 L 25.429688 -0.132812 L 25.429688 -5.894531 L 31.5 -5.894531 Z M 31.5 -8.667969 L 25.429688 -8.667969 L 25.429688 -13.8125 L 22.128906 -13.8125 L 22.128906 2.683594 L 34.757812 2.683594 L 34.757812 -13.8125 L 31.5 -13.8125 Z M 31.191406 -36.207031 L 31.191406 -26.792969 L 20.0625 -26.792969 L 20.0625 -24.019531 L 31.191406 -24.019531 L 31.191406 -15.308594 L 34.800781 -15.308594 L 34.800781 -36.207031 Z M 31.191406 -36.207031 "/></g></g></g><g fill="#000000" fill-opacity="1"><g transform="translate(628.655372, 724.821776)"><g><path d="M 12.847656 -8.84375 C 9.019531 -8.84375 6.335938 -12.980469 6.335938 -19.402344 C 6.335938 -25.78125 9.019531 -29.917969 12.847656 -29.917969 C 16.628906 -29.917969 19.3125 -25.78125 19.3125 -19.402344 C 19.3125 -12.980469 16.628906 -8.84375 12.847656 -8.84375 Z M 12.847656 -33.171875 C 7.039062 -33.171875 2.902344 -27.804688 2.902344 -19.402344 C 2.902344 -11 7.039062 -5.632812 12.847656 -5.632812 C 18.652344 -5.632812 22.746094 -11 22.746094 -19.402344 C 22.746094 -27.804688 18.652344 -33.171875 12.847656 -33.171875 Z M 39.199219 -20.457031 L 32.6875 -20.457031 L 32.6875 -36.164062 L 29.082031 -36.164062 L 29.082031 3.253906 L 32.6875 3.253906 L 32.6875 -17.421875 L 39.199219 -17.421875 Z M 39.199219 -20.457031 "/></g></g></g><g fill="#000000" fill-opacity="1"><g transform="translate(669.128156, 724.821776)"><g><path d="M 35.945312 -33.039062 L 21.996094 -33.039062 L 21.996094 -36.78125 L 18.390625 -36.78125 L 18.390625 -33.039062 L 4.136719 -33.039062 L 4.136719 -30.269531 L 35.945312 -30.269531 Z M 29.871094 0 L 10.382812 0 L 10.382812 -3.871094 L 29.871094 -3.871094 Z M 29.871094 -6.554688 L 10.382812 -6.554688 L 10.382812 -10.074219 L 6.820312 -10.074219 L 6.820312 2.726562 L 33.480469 2.726562 L 33.480469 -10.074219 L 29.871094 -10.074219 Z M 11.261719 -23.316406 C 11.261719 -25.210938 14.386719 -26.222656 20.195312 -26.222656 C 25.914062 -26.222656 29.082031 -25.210938 29.082031 -23.316406 C 29.082031 -21.382812 25.914062 -20.371094 20.195312 -20.371094 C 14.386719 -20.371094 11.261719 -21.382812 11.261719 -23.316406 Z M 21.996094 -14.914062 L 21.996094 -17.90625 C 28.992188 -18.171875 32.910156 -19.972656 32.910156 -23.316406 C 32.910156 -26.882812 28.332031 -28.773438 20.195312 -28.773438 C 11.964844 -28.773438 7.433594 -26.882812 7.433594 -23.316406 C 7.433594 -19.929688 11.308594 -18.171875 18.390625 -17.90625 L 18.390625 -14.914062 L 2.332031 -14.914062 L 2.332031 -12.054688 L 37.96875 -12.054688 L 37.96875 -14.914062 Z M 21.996094 -14.914062 "/></g></g></g><g fill="#000000" fill-opacity="1"><g transform="translate(709.608493, 724.821776)"><g/></g></g><g fill="#000000" fill-opacity="1"><g transform="translate(656.166762, 790.727332)"><g><path d="M 6.378906 -25.867188 C 6.378906 -29.433594 9.195312 -31.894531 13.109375 -31.894531 C 16.980469 -31.894531 19.796875 -29.433594 19.796875 -25.867188 C 19.796875 -22.347656 16.980469 -19.839844 13.109375 -19.839844 C 9.195312 -19.839844 6.378906 -22.347656 6.378906 -25.867188 Z M 31.191406 -28.597656 L 31.191406 -23.316406 L 22.878906 -23.316406 C 23.097656 -24.109375 23.230469 -24.988281 23.230469 -25.867188 C 23.230469 -26.835938 23.097656 -27.761719 22.832031 -28.597656 Z M 31.191406 -20.457031 L 31.191406 -15.96875 L 34.800781 -15.96875 L 34.800781 -36.207031 L 31.191406 -36.207031 L 31.191406 -31.457031 L 21.25 -31.457031 C 19.445312 -33.566406 16.542969 -34.84375 13.109375 -34.84375 C 7.214844 -34.84375 2.949219 -31.191406 2.949219 -25.867188 C 2.949219 -20.632812 7.214844 -16.9375 13.109375 -16.9375 C 16.628906 -16.894531 19.535156 -18.257812 21.382812 -20.457031 Z M 13.023438 -0.132812 L 13.023438 -4.445312 L 34.800781 -4.445312 L 34.800781 -13.945312 L 9.371094 -13.945312 L 9.371094 -11.085938 L 31.238281 -11.085938 L 31.238281 -7.171875 L 9.457031 -7.171875 L 9.457031 2.726562 L 36.296875 2.726562 L 36.296875 -0.132812 Z M 13.023438 -0.132812 "/></g></g></g><g fill="#000000" fill-opacity="1"><g transform="translate(696.643323, 790.727332)"><g/></g></g></svg>